<svg width="80" height="81" viewBox="0 0 80 81" fill="none" xmlns="http://www.w3.org/2000/svg">
<path d="M20.5866 4.46175L30.0666 0L43.5366 26.6287L34.4566 31.1546C32.6633 35.4038 41.6532 52.38 45.4466 52.6601C45.7466 52.4644 54.3499 48.1781 54.3499 48.1781L68.0499 74.9486C68.0499 74.9486 58.8366 79.5184 58.5366 79.6601C32.3299 91.7798 -5.14008 18.0394 20.5866 4.46175ZM27.0166 8.7615L23.6066 10.4625C5.95992 19.7843 37.5299 81.9619 55.7666 73.5277L59.0033 71.928L51.4333 57.1354L48.0133 58.8229C37.4699 64.044 20.4733 31.0837 31.1633 25.2821L34.5199 23.6047L27.0166 8.7615Z" fill="#F65165"/>
</svg>