<svg width="214" height="279" viewBox="0 0 214 279" fill="none" xmlns="http://www.w3.org/2000/svg">
<rect x="3.5" y="11.5" width="152" height="234" rx="11.5" fill="white" stroke="#335084" stroke-width="7"/>
<rect x="34" width="91" height="25" rx="5" fill="#335084"/>
<rect x="18" y="42" width="122" height="7" fill="#335084"/>
<rect x="18" y="61" width="122" height="7" fill="#335084"/>
<rect x="18" y="80" width="122" height="7" fill="#335084"/>
<rect x="18" y="99" width="7" height="7" fill="#335084"/>
<rect x="31" y="99" width="7" height="7" fill="#335084"/>
<rect x="44" y="99" width="96" height="7" fill="#335084"/>
<g clip-path="url(#clip0)">
<path d="M146 214.5L128 192.5L156.5 164.5L170.5 178.5L146 214.5Z" fill="white"/>
<path d="M211.483 118.988C213.46 120.426 214.268 122.342 213.909 124.738L190.909 262.738C190.609 264.475 189.651 265.823 188.034 266.781C187.195 267.26 186.267 267.5 185.249 267.5C184.59 267.5 183.871 267.35 183.093 267.051L142.393 250.43L120.651 276.934C119.573 278.311 118.106 279 116.249 279C115.47 279 114.811 278.88 114.272 278.641C113.134 278.221 112.221 277.518 111.532 276.529C110.843 275.541 110.499 274.448 110.499 273.25V241.895L188.124 146.75L92.0808 229.855L56.5926 215.301C54.3764 214.462 53.1785 212.815 52.9988 210.359C52.879 207.964 53.8374 206.197 55.8738 205.059L205.374 118.809C206.272 118.27 207.231 118 208.249 118C209.447 118 210.525 118.329 211.483 118.988Z" fill="#F65165"/>
</g>
<defs>
<clipPath id="clip0">
<rect x="53" y="118" width="161" height="161" fill="white"/>
</clipPath>
</defs>
</svg>
