<svg width="78" height="77" viewBox="0 0 78 77" fill="none" xmlns="http://www.w3.org/2000/svg">
<path d="M3.39136 73.652L8.37333 55.5984C5.2991 50.3139 3.68372 44.3234 3.68667 38.1805C3.69553 18.9757 19.4506 3.34766 38.8086 3.34766C48.2026 3.35059 57.0207 6.98005 63.6535 13.5652C70.2833 20.1504 73.9334 28.9033 73.9305 38.2128C73.9216 57.4205 58.1665 73.0486 38.8086 73.0486C32.9318 73.0456 27.1407 71.5839 22.011 68.8069L3.39136 73.652Z" fill="white"/>
<path d="M0.185303 77L5.66805 57.227C2.2848 51.4392 0.507053 44.8782 0.510303 38.1503C0.520053 17.1165 17.8588 0 39.1626 0C49.5008 0.00320833 59.2053 3.97833 66.5048 11.1907C73.8011 18.403 77.8181 27.9895 77.8148 38.1856C77.8051 59.2226 60.4663 76.3391 39.1626 76.3391C32.6951 76.3359 26.3218 74.7349 20.6766 71.6934L0.185303 77ZM21.6256 64.7859C27.0726 67.9782 32.2726 69.8903 39.1496 69.8935C56.8556 69.8935 71.2791 55.6678 71.2888 38.1792C71.2953 20.6552 56.9401 6.44875 39.1756 6.44233C21.4566 6.44233 7.0428 20.6681 7.0363 38.1535C7.03305 45.292 9.15205 50.6371 12.7108 56.2292L9.46405 67.9333L21.6256 64.7859ZM58.6333 47.2555C58.3928 46.8577 57.7493 46.6203 56.7808 46.1423C55.8156 45.6642 51.0673 43.3574 50.1801 43.0398C49.2961 42.7222 48.6526 42.5617 48.0058 43.5178C47.3623 44.4707 45.5098 46.6203 44.9476 47.2555C44.3853 47.8908 43.8198 47.971 42.8546 47.493C41.8893 47.0149 38.7758 46.0107 35.0871 42.7607C32.2173 40.2325 30.2771 37.1108 29.7148 36.1547C29.1526 35.2018 29.6563 34.6853 30.1373 34.2105C30.5728 33.7837 31.1026 33.0972 31.5868 32.5389C32.0776 31.9871 32.2368 31.5892 32.5618 30.9508C32.8836 30.3155 32.7243 29.7573 32.4806 29.2793C32.2368 28.8044 30.3063 24.1106 29.5036 22.2017C28.7171 20.344 27.9208 20.5943 27.3293 20.5654L25.4768 20.5333C24.8333 20.5333 23.7868 20.7707 22.9028 21.7268C22.0188 22.6829 19.5228 24.9865 19.5228 29.6803C19.5228 34.3741 22.9841 38.9075 23.4651 39.5427C23.9493 40.178 30.2738 49.8094 39.9621 53.9385C42.2663 54.9202 44.0668 55.5074 45.4676 55.9469C47.7816 56.672 49.8876 56.5693 51.5516 56.3255C53.4073 56.0528 57.2651 54.0187 58.0711 51.7921C58.8771 49.5623 58.8771 47.6534 58.6333 47.2555Z" fill="#F65165"/>
</svg>
