<svg width="331" height="81" viewBox="0 0 331 81" fill="none" xmlns="http://www.w3.org/2000/svg">
<path d="M6.06863 0C2.80401 1.326 3.73656 0.633048 2.18185 1.74122L1.73804 2.51722L3.51466 10.7251L4.29201 11.0586C4.73583 10.7251 5.29128 10.3915 6.06863 10.3915C8.17879 10.3915 5.51455 8.05945 5.51455 11.0586L5.51455 67.1549C5.51455 74.8168 9.50752 79.9248 17.1613 79.9248C20.2299 79.4959 19.2619 77.3721 20.8166 76.2626L21.432 74.9693L19.2551 69.5455C17.8719 69.9267 15.8693 70.9232 19.5247 69.0949C19.0808 69.427 20.9364 69.3889 20.1591 69.3889C18.1592 69.3889 17.6051 70.8197 17.6051 67.8206L17.6051 12.0905C17.6051 4.43679 13.6121 0 6.06863 0Z" fill="#2A3439"/>
<path d="M40.4319 16.7533C45.092 16.7533 48.8644 12.9809 48.8644 8.32084C48.8644 3.77242 45.092 0 40.4319 0C35.8835 0 32.1111 3.77242 32.1111 8.32084C32.1111 12.9809 35.8835 16.7533 40.4319 16.7533ZM46.015 79.6048C48.3321 77.1761 48.7963 75.8937 50.351 74.7841L49.4335 73.484L48.6806 69.6285H48.4192C48.0857 69.9621 47.9155 68.6646 47.1858 68.3965C46.3853 68.2059 46.5323 71.0321 46.5323 68.0901L46.5323 28.17L34.4418 28.17L34.4418 67.1821C34.4418 75.4158 37.912 79.9384 45.6175 79.9384C45.7727 79.9384 45.8557 79.6048 46.015 79.6048Z" fill="#2A3439"/>
<path d="M121.929 68.9888L121.152 68.6553C120.707 68.9888 120.151 69.321 119.375 69.321C117.375 69.321 116.82 69.0188 116.82 66.0196V45.1045C116.82 31.2197 107.836 21.6831 93.7305 21.6831C86.2877 21.6831 79.9545 24.3446 75.6239 28.6698C74.1822 24.2344 71.0524 23.9498 66.0601 23.9498C63.174 23.9498 62.5028 32.1073 63.2802 32.1073C65.3903 32.1073 65.1984 31.7057 65.1984 34.7048L65.1984 73.6679H77.3992L77.3992 46.0997C77.3992 37.6604 83.0653 32.1073 91.3984 32.1073C99.7301 32.1073 104.731 37.6604 104.731 46.0997V67.4205C104.731 74.9708 108.612 79.8568 116.266 79.8568C119.346 79.0114 118.73 76.7229 120.284 75.6134L121.929 74.6726V68.9888Z" fill="#2A3439"/>
<path d="M190.642 68.6553H192.273C192.051 68.8772 191.496 69.321 190.497 69.321C188.61 69.321 187.943 69.3183 187.943 66.2075V28.6698L177.407 23.4216L177.296 29.6677C172.409 24.8987 165.744 21.6831 157.634 21.6831C141.305 21.6831 129.769 34.4394 129.769 50.7693C129.769 66.9889 141.305 79.8568 157.634 79.8568C165.744 79.8568 172.519 76.6412 177.407 71.762C178.627 76.8631 182.287 79.8568 187.721 79.8568C190.782 78.2586 191.496 77.5765 193.05 76.5786L191.579 74.4834L190.642 68.6553ZM159.522 69.321C148.969 69.321 142.081 61.1009 142.081 50.7693C142.081 40.5493 148.857 32.2189 159.634 32.2189C169.187 32.2189 176.963 38.7727 176.963 50.7693C176.963 62.657 169.187 69.321 159.522 69.321Z" fill="#2A3439"/>
<path d="M264.638 69.1503L263.861 68.8168C263.417 69.1503 262.861 69.4825 262.084 69.4825C260.085 69.4825 259.53 69.1803 259.53 66.1811V7.60578L257.734 6.51394L256.419 5.9585L247.551 5.9585V28.6094C242.886 24.5061 236.664 21.8446 229.553 21.8446C212.669 21.8446 201.356 34.6009 201.356 50.9308C201.356 67.1504 212.669 80.0184 229.553 80.0184C237.663 80.0184 244.329 76.913 248.993 72.0338C250.324 77.0246 253.984 79.8972 259.086 79.8972C262.194 79.8972 262.306 77.9531 263.861 76.8449V75.7749L264.638 69.1503ZM230.998 69.4825C220.666 69.4825 213.667 61.2624 213.667 50.9308C213.667 40.7108 220.666 32.3804 230.998 32.3804C240.774 32.3804 248.549 38.7123 248.549 50.9308C248.549 63.0404 240.774 69.4825 230.998 69.4825Z" fill="#2A3439"/>
<path d="M324.264 59.7858C324.049 60.1765 322.821 58.6667 322.602 59.037C322.575 59.0846 322.447 59.1473 322.42 59.1949C322.353 59.3066 321.961 59.0969 321.893 59.2072C319.171 63.6589 315.939 66.6703 309.714 68.7301C300.169 71.8899 291.535 68.4088 287.164 59.7259C292.277 60.2173 298.082 60.0186 304.306 57.9588C319.14 53.0482 325.997 43.1944 322.663 33.1256C319.262 22.8511 308.295 18.8949 293.67 23.736C277.174 29.1966 269.397 44.3053 274.655 60.1887C279.909 76.0612 294.956 83.6156 311.764 78.053C320.21 75.2567 326.222 70.6905 330.126 64.0823C330.215 63.9326 330.101 63.6576 330.186 63.5078C330.209 63.467 329.813 63.0272 329.836 62.9864C330.173 62.386 329.184 62.2145 329.488 61.5814L329.598 60.7673L324.743 58.7334L324.264 59.7858ZM295.619 32.2516C303.711 29.5737 310.658 30.3211 312.445 35.7204C314.232 41.1197 311.033 44.4347 302.161 48.1622C294.605 51.3383 286.336 50.0164 284.471 49.5971C283.244 40.3274 287.527 34.9308 295.619 32.2516Z" fill="#2A3439"/>
<path d="M45.5772 79.911C48.9464 79.911 51.6776 77.1401 51.6776 73.7221C51.6776 70.3041 48.9464 67.5332 45.5772 67.5332C42.2081 67.5332 39.4768 70.3041 39.4768 73.7221C39.4768 77.1401 42.2081 79.911 45.5772 79.911Z" fill="#2A3439"/>
<path d="M17.1905 79.911C20.5597 79.911 23.2909 77.1401 23.2909 73.7221C23.2909 70.3041 20.5597 67.5332 17.1905 67.5332C13.8213 67.5332 11.0901 70.3041 11.0901 73.7221C11.0901 77.1401 13.8213 79.911 17.1905 79.911Z" fill="#2A3439"/>
<path d="M6.10041 12.3778C9.46957 12.3778 12.2008 9.60692 12.2008 6.18889C12.2008 2.77086 9.46957 0 6.10041 0C2.73125 0 0 2.77086 0 6.18889C0 9.60692 2.73125 12.3778 6.10041 12.3778Z" fill="#2A3439"/>
<path d="M40.4728 33.9493C43.8112 33.9493 46.5174 31.2034 46.5174 27.8162C46.5174 24.429 43.8112 21.6831 40.4728 21.6831C37.1345 21.6831 34.4282 24.429 34.4282 27.8162C34.4282 31.2034 37.1345 33.9493 40.4728 33.9493Z" fill="#2A3439"/>
<path d="M71.3157 79.911C74.6849 79.911 77.4161 77.1401 77.4161 73.7221C77.4161 70.3041 74.6849 67.5332 71.3157 67.5332C67.9466 67.5332 65.2153 70.3041 65.2153 73.7221C65.2153 77.1401 67.9466 79.911 71.3157 79.911Z" fill="#2A3439"/>
<path d="M68.7327 35.7054C72.5492 35.7054 75.6431 32.5664 75.6431 28.6943C75.6431 24.8221 72.5492 21.6831 68.7327 21.6831C64.9162 21.6831 61.8223 24.8221 61.8223 28.6943C61.8223 32.5664 64.9162 35.7054 68.7327 35.7054Z" fill="#2A3439"/>
<path d="M116.237 79.8998C120.054 79.8998 123.148 76.7608 123.148 72.8886C123.148 69.0165 120.054 65.8774 116.237 65.8774C112.421 65.8774 109.327 69.0165 109.327 72.8886C109.327 76.7608 112.421 79.8998 116.237 79.8998Z" fill="#2A3439"/>
<path d="M181.039 35.7054C184.855 35.7054 187.949 32.5664 187.949 28.6943C187.949 24.8221 184.855 21.6831 181.039 21.6831C177.222 21.6831 174.128 24.8221 174.128 28.6943C174.128 32.5664 177.222 35.7054 181.039 35.7054Z" fill="#2A3439"/>
<path d="M252.058 15.0543C256.155 15.0543 259.477 11.6843 259.477 7.52715C259.477 3.37002 256.155 0 252.058 0C247.961 0 244.64 3.37002 244.64 7.52715C244.64 11.6843 247.961 15.0543 252.058 15.0543Z" fill="#2A3439"/>
<path d="M187.742 79.8998C191.559 79.8998 194.653 76.7608 194.653 72.8886C194.653 69.0165 191.559 65.8774 187.742 65.8774C183.926 65.8774 180.832 69.0165 180.832 72.8886C180.832 76.7608 183.926 79.8998 187.742 79.8998Z" fill="#2A3439"/>
<path d="M259.082 79.8998C262.898 79.8998 265.992 76.7608 265.992 72.8886C265.992 69.0165 262.898 65.8774 259.082 65.8774C255.265 65.8774 252.171 69.0165 252.171 72.8886C252.171 76.7608 255.265 79.8998 259.082 79.8998Z" fill="#2A3439"/>
<path fill-rule="evenodd" clip-rule="evenodd" d="M319.619 57.9052C321.31 55.0341 325.048 54.0961 327.961 55.8114C330.875 57.5281 331.866 61.2529 330.175 64.1241C328.483 66.9953 324.744 67.9333 321.832 66.2165C318.919 64.5012 317.928 60.7764 319.619 57.9052Z" fill="#2A3439"/>
</svg>
