<svg width="130" height="31" viewBox="0 0 130 31" fill="none" xmlns="http://www.w3.org/2000/svg">
<path fill-rule="evenodd" clip-rule="evenodd" d="M10.0321 10.8274L10.0964 10.828L10.1605 10.8292L10.2245 10.8306L10.2886 10.8323L10.3527 10.8346L10.4164 10.8372L10.4802 10.8401L10.5437 10.8435L10.6072 10.8475L10.6707 10.8516L10.7339 10.8562L10.7971 10.8613L10.8603 10.8668L10.9232 10.8725L10.9861 10.8786L11.0487 10.8852L11.1113 10.8924L11.174 10.8995L11.2363 10.9073L11.2986 10.9153L11.3607 10.924L11.4227 10.9329L11.4848 10.9421L11.5465 10.9518L11.608 10.9619L11.6695 10.9722L11.731 10.9831L11.7921 10.994L11.8533 11.0055L11.9145 11.0176L11.9754 11.03L12.036 11.0426L12.0966 11.0555L12.157 11.0687L12.2176 11.0825L12.2776 11.0966L12.3377 11.1113L12.3977 11.1259L12.4574 11.1411L12.5169 11.1566L12.5764 11.1727L12.6358 11.1891L12.695 11.2055L12.7539 11.2227L12.8128 11.2399L12.8717 11.2575L12.9303 11.2756L12.9886 11.294L13.0469 11.3126L13.1049 11.3319L13.163 11.3514L13.2207 11.3709L13.2784 11.391L13.3359 11.4117L13.3933 11.4324L13.4505 11.4537L13.5074 11.4749L13.5643 11.4968L13.6209 11.5192L13.6774 11.5416L13.7338 11.5643L13.7898 11.5875L13.8458 11.6111L13.9015 11.6349L13.9572 11.6591L14.0127 11.6835L14.0678 11.7082L14.123 11.7335L14.1779 11.7587L14.2327 11.7846L14.2873 11.8107L14.3416 11.8372L14.3959 11.8639L14.4499 11.8909L14.5036 11.9185L14.5573 11.946L14.6108 11.9739L14.6639 12.0023L14.7171 12.0311L14.7699 12.0598L14.8225 12.0891L14.875 12.1187L14.9273 12.1486L14.9793 12.1787L15.0313 12.2092L15.083 12.2399L15.1344 12.2712L15.1856 12.3025L15.2367 12.3341L15.2876 12.366L15.3384 12.3985L15.3887 12.4309L15.4389 12.464L15.4889 12.497L15.5389 12.5303L15.5886 12.5642L15.638 12.5981L15.6871 12.6326L15.736 12.6671L15.7848 12.7021L15.8334 12.7372L15.8816 12.7728L15.9296 12.8084L15.9776 12.8446L16.0252 12.8808L16.0726 12.9173L16.1198 12.9543L16.1669 12.9914L16.2134 13.0287L16.2599 13.0666L16.3062 13.1046L16.3524 13.1428L16.3981 13.1813L16.4438 13.22L16.4892 13.2591L16.5343 13.2985L16.5791 13.3378L16.6236 13.3778L16.6681 13.418L16.7121 13.4582L16.756 13.499L16.7997 13.5398L16.8431 13.5809L16.8862 13.6222L16.9293 13.6639L16.9718 13.7058L17.0143 13.748L17.0565 13.7906L17.0985 13.8331L17.1401 13.8759L17.1815 13.9192L17.2226 13.9626L17.2634 14.0063L17.3041 14.0502L17.3444 14.0942L17.3846 14.1387L17.4242 14.1832L17.4639 14.2281L17.5032 14.2732L17.5423 14.3185L17.5811 14.3642L17.6196 14.4099L17.6578 14.4559L17.6957 14.5024L17.7333 14.5486L17.7709 14.5955L17.808 14.6426L17.8448 14.6897L17.8815 14.7371L17.9177 14.7848L17.9539 14.8325L17.9896 14.8807L18.0249 14.929L18.0602 14.9775L18.095 15.0264L18.1297 15.0752L18.1639 15.1243L18.1981 15.1737L18.2317 15.2234L18.2653 15.2731L18.2984 15.3234L18.3314 15.3734L18.3639 15.4239L18.396 15.4745L18.4282 15.5256L18.4598 15.5765L18.4911 15.6279L18.5221 15.6793L18.5532 15.731L18.5836 15.783L18.6138 15.835L18.6436 15.8873L18.6732 15.9399L18.7023 15.9924L18.7313 16.0453L18.76 16.0984L18.7881 16.1516L18.8163 16.205L18.8439 16.2587L18.8714 16.3124L18.8985 16.3664L18.9252 16.4207L18.9516 16.475L18.9777 16.5296L19.0033 16.5842L19.0289 16.6393L19.0541 16.6942L19.0789 16.7496L19.1033 16.8051L19.1274 16.8605L19.1512 16.9165L19.1748 16.9726L19.1981 17.0286L19.2208 17.0849L19.2432 17.1415L19.2653 17.1981L19.2871 17.2549L19.3087 17.3118L19.3299 17.369L19.3506 17.4264L19.371 17.4839L19.3911 17.5413L19.4109 17.5994L19.4305 17.6571L19.4494 17.7154L19.4684 17.7737L19.4868 17.8321L19.5046 17.8907L19.5224 17.9493L19.5396 18.0081L19.5566 18.0673L19.5732 18.1265L19.5896 18.186L19.6054 18.2454L19.6209 18.3049L19.6361 18.3646L19.6511 18.4247L19.6654 18.4847L19.6798 18.5448L19.6933 18.6051L19.7068 18.6657L19.7197 18.7263L19.7324 18.7869L19.7447 18.8478L19.7565 18.909L19.768 18.9699L19.7792 19.0314L19.7901 19.0926L19.8005 19.1543L19.8105 19.2158L19.8203 19.2776L19.8295 19.3396L19.8384 19.4017L19.8467 19.4637L19.855 19.526L19.8628 19.5884L19.87 19.651L19.8769 19.7136L19.8835 19.7762L19.8898 19.8392L19.8955 19.9021L19.901 19.965L19.9059 20.0282L19.9108 20.0917L19.9148 20.1549L19.9188 20.2186L19.922 20.2821L19.9251 20.3459L19.9277 20.4097L19.93 20.4737L19.9317 20.5378L19.9332 20.6018L19.9343 20.6659L19.9349 20.7302L19.9352 20.7946L19.9349 20.8592L19.9343 20.9236L19.9332 20.9876L19.9317 21.0517L19.93 21.1158L19.9277 21.1798L19.9251 21.2436L19.922 21.3074L19.9188 21.3708L19.9148 21.4343L19.9108 21.4978L19.9059 21.5613L19.901 21.6245L19.8955 21.6874L19.8898 21.7503L19.8835 21.8132L19.8769 21.8759L19.87 21.9385L19.8628 22.0011L19.855 22.0634L19.8467 22.1258L19.8384 22.1878L19.8295 22.2499L19.8203 22.3119L19.8105 22.3737L19.8005 22.4352L19.7901 22.4969L19.7792 22.5581L19.768 22.6196L19.7565 22.6805L19.7447 22.7417L19.7324 22.8026L19.7197 22.8632L19.7068 22.9238L19.6933 22.9844L19.6798 23.0447L19.6654 23.1048L19.6511 23.1648L19.6361 23.2248L19.6209 23.2846L19.6054 23.3441L19.5896 23.4035L19.5732 23.463L19.5566 23.5222L19.5396 23.5813L19.5224 23.6402L19.5046 23.6988L19.4868 23.7574L19.4684 23.8157L19.4494 23.8741L19.4305 23.9324L19.4109 23.9901L19.3911 24.0481L19.371 24.1056L19.3506 24.163L19.3299 24.2205L19.3087 24.2777L19.2871 24.3345L19.2653 24.3914L19.2432 24.448L19.2208 24.5046L19.1981 24.5609L19.1748 24.6169L19.1512 24.6729L19.1274 24.7289L19.1033 24.7844L19.0789 24.8398L19.0541 24.8953L19.0289 24.9501L19.0033 25.0053L18.9777 25.0599L18.9516 25.1145L18.9252 25.1687L18.8985 25.223L18.8714 25.277L18.8439 25.3308L18.8163 25.3845L18.7881 25.4379L18.76 25.4911L18.7313 25.5442L18.7023 25.5971L18.6732 25.6496L18.6436 25.7022L18.6138 25.7545L18.5836 25.8065L18.5532 25.8585L18.5221 25.9102L18.4911 25.9616L18.4598 26.013L18.4282 26.0639L18.396 26.115L18.3639 26.1655L18.3314 26.2161L18.2984 26.2661L18.2653 26.3164L18.2317 26.3661L18.1981 26.4158L18.1639 26.4652L18.1297 26.5143L18.095 26.5631L18.0602 26.612L18.0249 26.6605L17.9896 26.7088L17.9539 26.757L17.9177 26.8047L17.8815 26.8524L17.8448 26.8998L17.808 26.9469L17.7709 26.994L17.7333 27.0408L17.6957 27.0871L17.6578 27.1336L17.6196 27.1796L17.5811 27.2253L17.5423 27.2709L17.5032 27.3163L17.4639 27.3614L17.4242 27.4062L17.3846 27.4508L17.3444 27.4953L17.3041 27.5392L17.2634 27.5832L17.2226 27.6269L17.1815 27.6702L17.1401 27.7136L17.0985 27.7564L17.0565 27.7989L17.0143 27.8414L16.9718 27.8837L16.9293 27.9256L16.8862 27.9673L16.8431 28.0086L16.7997 28.0497L16.756 28.0905L16.7121 28.1313L16.6681 28.1715L16.6236 28.2117L16.5791 28.2516L16.5343 28.291L16.4892 28.3304L16.4438 28.3694L16.3981 28.4082L16.3524 28.4467L16.3062 28.4849L16.2599 28.5228L16.2134 28.5607L16.1669 28.5981L16.1198 28.6351L16.0726 28.6722L16.0252 28.7087L15.9776 28.7449L15.9296 28.7811L15.8816 28.8167L15.8334 28.8523L15.7848 28.8874L15.736 28.9224L15.6871 28.9569L15.638 28.9914L15.5886 29.0252L15.5389 29.0591L15.4889 29.0925L15.4389 29.1255L15.3887 29.1585L15.3384 29.191L15.2876 29.2235L15.2367 29.2553L15.1856 29.2869L15.1344 29.3183L15.083 29.3496L15.0313 29.3803L14.9793 29.4108L14.9273 29.4409L14.875 29.4708L14.8225 29.5004L14.7699 29.5297L14.7171 29.5584L14.6639 29.5871L14.6108 29.6156L14.5573 29.6434L14.5036 29.671L14.4499 29.6986L14.3959 29.7256L14.3416 29.7523L14.2873 29.7787L14.2327 29.8049L14.1779 29.8307L14.123 29.856L14.0678 29.8813L14.0127 29.906L13.9572 29.9304L13.9015 29.9545L13.8458 29.9784L13.7898 30.0019L13.7338 30.0252L13.6774 30.0479L13.6209 30.0703L13.5643 30.0927L13.5074 30.1145L13.4505 30.1358L13.3933 30.1571L13.3359 30.1777L13.2784 30.1984L13.2207 30.2185L13.163 30.2381L13.1049 30.2576L13.0469 30.2769L12.9886 30.2955L12.9303 30.3139L12.8717 30.332L12.8128 30.3495L12.7539 30.3668L12.695 30.384L12.6358 30.4004L12.5764 30.4167L12.5169 30.4328L12.4574 30.4483L12.3977 30.4636L12.3377 30.4782L12.2776 30.4929L12.2176 30.507L12.157 30.5207L12.0966 30.534L12.036 30.5469L11.9754 30.5595L11.9145 30.5719L11.8533 30.5839L11.7921 30.5954L11.731 30.6063L11.6695 30.6173L11.608 30.6276L11.5465 30.6377L11.4848 30.6474L11.4227 30.6566L11.3607 30.6655L11.2986 30.6741L11.2363 30.6822L11.174 30.6899L11.1113 30.6971L11.0487 30.7043L10.9861 30.7109L10.9232 30.7169L10.8603 30.7227L10.7971 30.7281L10.7339 30.7333L10.6707 30.7379L10.6072 30.7419L10.5437 30.746L10.4802 30.7494L10.4164 30.7523L10.3527 30.7549L10.2886 30.7572L10.2245 30.7589L10.1605 30.7603L10.0964 30.7615L10.0321 30.762L9.96745 30.7623L9.9031 30.762L9.83875 30.7615L9.77469 30.7603L9.71035 30.7589L9.64629 30.7572L9.58252 30.7549L9.51874 30.7523L9.45497 30.7494L9.3912 30.746L9.32771 30.7419L9.26451 30.7379L9.20103 30.7333L9.13783 30.7281L9.07492 30.7227L9.01201 30.7169L8.9491 30.7109L8.88619 30.7043L8.82357 30.6971L8.76123 30.6899L8.69889 30.6822L8.63656 30.6741L8.57422 30.6655L8.51246 30.6566L8.45041 30.6474L8.38865 30.6377L8.32689 30.6276L8.26542 30.6173L8.20394 30.6063L8.14275 30.5954L8.08157 30.5839L8.02067 30.5719L7.95977 30.5595L7.89915 30.5469L7.83854 30.534L7.77793 30.5207L7.7176 30.507L7.65757 30.4929L7.59753 30.4782L7.53749 30.4636L7.47774 30.4483L7.41799 30.4328L7.35853 30.4167L7.29935 30.4004L7.24017 30.384L7.181 30.3668L7.12211 30.3495L7.06351 30.332L7.00491 30.3139L6.9463 30.2955L6.88828 30.2769L6.82996 30.2576L6.77222 30.2381L6.7142 30.2185L6.65674 30.1984L6.59929 30.1777L6.54184 30.1571L6.48467 30.1358L6.42779 30.1145L6.37092 30.0927L6.31433 30.0703L6.25773 30.0479L6.20143 30.0252L6.14513 30.0019L6.0894 29.9784L6.03338 29.9545L5.97794 29.9304L5.9225 29.906L5.86706 29.8813L5.8119 29.856L5.75704 29.8307L5.70246 29.8049L5.64788 29.7787L5.5933 29.7523L5.53929 29.7256L5.48528 29.6986L5.43157 29.671L5.37785 29.6434L5.32442 29.6156L5.27099 29.5871L5.21813 29.5584L5.16527 29.5297L5.11242 29.5004L5.06014 29.4708L5.00785 29.4409L4.95557 29.4108L4.90386 29.3803L4.85216 29.3496L4.80074 29.3183L4.74932 29.2869L4.69818 29.2553L4.64734 29.2235L4.59678 29.191L4.54622 29.1585L4.49595 29.1255L4.44597 29.0925L4.39627 29.0591L4.34657 29.0252L4.29717 28.9914L4.24804 28.9569L4.19892 28.9224L4.15037 28.8874L4.10183 28.8523L4.05357 28.8167L4.00531 28.7811L3.95762 28.7449L3.90994 28.7087L3.86254 28.6722L3.81514 28.6351L3.76831 28.5981L3.72149 28.5607L3.67495 28.5228L3.6287 28.4849L3.58274 28.4467L3.53707 28.4082L3.49139 28.3694L3.44601 28.3304L3.40091 28.291L3.35609 28.2516L3.31157 28.2117L3.26704 28.1715L3.2228 28.1313L3.17914 28.0905L3.13547 28.0497L3.0921 28.0086L3.04872 27.9673L3.00592 27.9256L2.96312 27.8837L2.92089 27.8414L2.87866 27.7989L2.83672 27.7564L2.79507 27.7136L2.7537 27.6702L2.71262 27.6269L2.67154 27.5832L2.63104 27.5392L2.59054 27.4953L2.55061 27.4508L2.51068 27.4062L2.47104 27.3614L2.43197 27.3163L2.3929 27.2709L2.35412 27.2253L2.31563 27.1796L2.27742 27.1336L2.23921 27.0871L2.20158 27.0408L2.16424 26.994L2.12718 26.9469L2.09012 26.8998L2.05364 26.8524L2.01745 26.8047L1.98125 26.757L1.94563 26.7088L1.91001 26.6605L1.87496 26.612L1.83992 26.5631L1.80545 26.5143L1.77098 26.4652L1.73708 26.4158L1.70318 26.3661L1.66986 26.3164L1.63654 26.2661L1.60379 26.2161L1.57133 26.1655L1.53887 26.115L1.50698 26.0639L1.47538 26.013L1.44378 25.9616L1.41276 25.9102L1.38202 25.8585L1.35157 25.8065L1.32141 25.7545L1.29153 25.7022L1.26195 25.6496L1.23265 25.5971L1.20363 25.5442L1.17519 25.4911L1.14675 25.4379L1.11889 25.3845L1.09102 25.3308L1.06373 25.277L1.03673 25.223L1.01002 25.1687L0.983588 25.1145L0.957447 25.0599L0.931594 25.0053L0.906314 24.9501L0.881035 24.8953L0.856331 24.8398L0.831913 24.7844L0.807496 24.7289L0.78394 24.6729L0.760385 24.6169L0.737117 24.5609L0.714423 24.5046L0.691729 24.448L0.66961 24.3914L0.647778 24.3345L0.62652 24.2777L0.605263 24.2205L0.58458 24.163L0.563897 24.1056L0.543789 24.0481L0.523968 23.9901L0.504721 23.9324L0.485474 23.8741L0.466802 23.8157L0.448417 23.7574L0.43032 23.6988L0.412797 23.6402L0.395274 23.5813L0.378325 23.5222L0.361664 23.463L0.345577 23.4035L0.329491 23.3441L0.313978 23.2846L0.298753 23.2248L0.284103 23.1648L0.269453 23.1048L0.255377 23.0447L0.241588 22.9844L0.228374 22.9238L0.21516 22.8632L0.20252 22.8026L0.190455 22.7417L0.17839 22.6805L0.1669 22.6196L0.155696 22.5581L0.145068 22.4969L0.134726 22.4352L0.124672 22.3737L0.114905 22.3119L0.105713 22.2499L0.0968076 22.1878L0.0881897 22.1258L0.0801463 22.0634L0.0723903 22.0011L0.0649214 21.9385L0.0580271 21.8759L0.0514201 21.8132L0.0453875 21.7503L0.0396423 21.6874L0.0341843 21.6245L0.0290136 21.5613L0.0244173 21.4978L0.0201084 21.4343L0.016374 21.3708L0.0129268 21.3074L0.0100542 21.2436L0.00718157 21.1798L0.00517073 21.1158L0.00315989 21.0517L0.00172358 20.9876L0.000861789 20.9236L0.000287263 20.8592L0 20.7946L0.000287263 20.7302L0.000861789 20.6659L0.00172358 20.6018L0.00315989 20.5378L0.00517073 20.4737L0.00718157 20.4097L0.0100542 20.3459L0.0129268 20.2821L0.016374 20.2186L0.0201084 20.1549L0.0244173 20.0917L0.0290136 20.0282L0.0341843 19.965L0.0396423 19.9021L0.0453875 19.8392L0.0514201 19.7762L0.0580271 19.7136L0.0649214 19.651L0.0723903 19.5884L0.0801463 19.526L0.0881897 19.4637L0.0968076 19.4017L0.105713 19.3396L0.114905 19.2776L0.124672 19.2158L0.134726 19.1543L0.145068 19.0926L0.155696 19.0314L0.1669 18.9699L0.17839 18.909L0.190455 18.8478L0.20252 18.7869L0.21516 18.7263L0.228374 18.6657L0.241588 18.6051L0.255377 18.5448L0.269453 18.4847L0.284103 18.4247L0.298753 18.3646L0.313978 18.3049L0.329491 18.2454L0.345577 18.186L0.361664 18.1265L0.378325 18.0673L0.395274 18.0081L0.412797 17.9493L0.43032 17.8907L0.448417 17.8321L0.466802 17.7737L0.485474 17.7154L0.504721 17.6571L0.523968 17.5994L0.543789 17.5413L0.563897 17.4839L0.58458 17.4264L0.605263 17.369L0.62652 17.3118L0.647778 17.2549L0.66961 17.1981L0.691729 17.1415L0.714423 17.0849L0.737117 17.0286L0.760385 16.9726L0.78394 16.9165L0.807496 16.8605L0.831913 16.8051L0.856331 16.7496L0.881035 16.6942L0.906314 16.6393L0.931594 16.5842L0.957447 16.5296L0.983588 16.475L1.01002 16.4207L1.03673 16.3664L1.06373 16.3124L1.09102 16.2587L1.11889 16.205L1.14675 16.1516L1.17519 16.0984L1.20363 16.0453L1.23265 15.9924L1.26195 15.9399L1.29153 15.8873L1.32141 15.835L1.35157 15.783L1.38202 15.731L1.41276 15.6793L1.44378 15.6279L1.47538 15.5765L1.50698 15.5256L1.53887 15.4745L1.57133 15.4239L1.60379 15.3734L1.63654 15.3234L1.66986 15.2731L1.70318 15.2234L1.73708 15.1737L1.77098 15.1243L1.80545 15.0752L1.83992 15.0264L1.87496 14.9775L1.91001 14.929L1.94563 14.8807L1.98125 14.8325L2.01745 14.7848L2.05364 14.7371L2.09012 14.6897L2.12718 14.6426L2.16424 14.5955L2.20158 14.5486L2.23921 14.5024L2.27742 14.4559L2.31563 14.4099L2.35412 14.3642L2.3929 14.3185L2.43197 14.2732L2.47104 14.2281L2.51068 14.1832L2.55061 14.1387L2.59054 14.0942L2.63104 14.0502L2.67154 14.0063L2.71262 13.9626L2.7537 13.9192L2.79507 13.8759L2.83672 13.8331L2.87866 13.7906L2.92089 13.748L2.96312 13.7058L3.00592 13.6639L3.04872 13.6222L3.0921 13.5809L3.13547 13.5398L3.17914 13.499L3.2228 13.4582L3.26704 13.418L3.31157 13.3778L3.35609 13.3378L3.40091 13.2985L3.44601 13.2591L3.49139 13.22L3.53707 13.1813L3.58274 13.1428L3.6287 13.1046L3.67495 13.0666L3.72149 13.0287L3.76831 12.9914L3.81514 12.9543L3.86254 12.9173L3.90994 12.8808L3.95762 12.8446L4.00531 12.8084L4.05357 12.7728L4.10183 12.7372L4.15037 12.7021L4.19892 12.6671L4.24804 12.6326L4.29717 12.5981L4.34657 12.5642L4.39627 12.5303L4.44597 12.497L4.49595 12.464L4.54622 12.4309L4.59678 12.3985L4.64734 12.366L4.69818 12.3341L4.74932 12.3025L4.80074 12.2712L4.85216 12.2399L4.90386 12.2092L4.95557 12.1787L5.00785 12.1486L5.06014 12.1187L5.11242 12.0891L5.16527 12.0598L5.21813 12.0311L5.27099 12.0023L5.32442 11.9739L5.37785 11.946L5.43157 11.9185L5.48528 11.8909L5.53929 11.8639L5.5933 11.8372L5.64788 11.8107L5.70246 11.7846L5.75704 11.7587L5.8119 11.7335L5.86706 11.7082L5.9225 11.6835L5.97794 11.6591L6.03338 11.6349L6.0894 11.6111L6.14513 11.5875L6.20143 11.5643L6.25773 11.5416L6.31433 11.5192L6.37092 11.4968L6.42779 11.4749L6.48467 11.4537L6.54184 11.4324L6.59929 11.4117L6.65674 11.391L6.7142 11.3709L6.77222 11.3514L6.82996 11.3319L6.88828 11.3126L6.9463 11.294L7.00491 11.2756L7.06351 11.2575L7.12211 11.2399L7.181 11.2227L7.24017 11.2055L7.29935 11.1891L7.35853 11.1727L7.41799 11.1566L7.47774 11.1411L7.53749 11.1259L7.59753 11.1113L7.65757 11.0966L7.7176 11.0825L7.77793 11.0687L7.83854 11.0555L7.89915 11.0426L7.95977 11.03L8.02067 11.0176L8.08157 11.0055L8.14275 10.994L8.20394 10.9831L8.26542 10.9722L8.32689 10.9619L8.38865 10.9518L8.45041 10.9421L8.51246 10.9329L8.57422 10.924L8.63656 10.9153L8.69889 10.9073L8.76123 10.8995L8.82357 10.8924L8.88619 10.8852L8.9491 10.8786L9.01201 10.8725L9.07492 10.8668L9.13783 10.8613L9.20103 10.8562L9.26451 10.8516L9.32771 10.8475L9.3912 10.8435L9.45497 10.8401L9.51874 10.8372L9.58252 10.8346L9.64629 10.8323L9.71035 10.8306L9.77469 10.8292L9.83875 10.828L9.9031 10.8274L9.96745 10.8271L10.0321 10.8274ZM9.93786 16.3084L9.90827 16.3087L9.87897 16.309L9.84938 16.3096L9.82008 16.3104L9.79107 16.3116L9.76177 16.3127L9.73275 16.3142L9.70374 16.3156L9.67501 16.3173L9.64629 16.3193L9.61756 16.3213L9.58884 16.3236L9.56011 16.3262L9.53167 16.3288L9.50352 16.3317L9.47537 16.3346L9.44722 16.3377L9.41877 16.3409L9.39062 16.3446L9.36276 16.3481L9.33489 16.3521L9.30703 16.3558L9.27945 16.3601L9.25159 16.3644L9.22401 16.369L9.19643 16.3736L9.16886 16.3785L9.14157 16.3834L9.11399 16.3886L9.08699 16.394L9.0597 16.3995L9.03269 16.4049L9.00569 16.4107L8.97869 16.4167L8.95169 16.423L8.92497 16.4291L8.89826 16.4357L8.87125 16.4423L8.84482 16.4492L8.81811 16.4561L8.79168 16.463L8.76497 16.4704L8.73882 16.4776L8.71268 16.4854L8.68626 16.4931L8.66011 16.5009L8.63397 16.5089L8.60812 16.517L8.58198 16.5256L8.55612 16.5339L8.53027 16.5425L8.50442 16.5514L8.47885 16.5603L8.45329 16.5695L8.42772 16.5787L8.40215 16.5882L8.37687 16.5977L8.35131 16.6075L8.32603 16.6175L8.30104 16.6276L8.27576 16.6376L8.25076 16.648L8.22577 16.6586L8.20078 16.6692L8.17579 16.6798L8.15108 16.6908L8.12638 16.702L8.10168 16.7132L8.07726 16.7247L8.05255 16.7361L8.02814 16.7479L8.00372 16.7597L7.97959 16.7718L7.95546 16.7838L7.93104 16.7962L7.9072 16.8085L7.88336 16.8209L7.85923 16.8338L7.83538 16.8467L7.81154 16.8597L7.78798 16.8729L7.76443 16.8861L7.74116 16.8993L7.7176 16.9131L7.69405 16.9269L7.67078 16.9407L7.6478 16.9548L7.62453 16.9688L7.60155 16.9832L7.57857 16.9976L7.55588 17.0119L7.53318 17.0266L7.51049 17.0415L7.48779 17.0564L7.46539 17.0717L7.44269 17.0869L7.42058 17.1021L7.39846 17.1176L7.37605 17.1334L7.35422 17.1492L7.3321 17.165L7.31027 17.1811L7.28843 17.1975L7.26689 17.2136L7.24534 17.2302L7.2238 17.2469L7.20254 17.2633L7.18128 17.2802L7.16003 17.2972L7.13877 17.3144L7.1178 17.3316L7.09712 17.3489L7.07615 17.3664L7.05546 17.3839L7.03478 17.4017L7.01438 17.4195L6.99399 17.4374L6.97388 17.4555L6.95377 17.4735L6.93366 17.4922L6.91356 17.5106L6.89402 17.529L6.8742 17.5477L6.85467 17.5666L6.83513 17.5856L6.8156 17.6045L6.79635 17.6238L6.77739 17.6427L6.75843 17.6623L6.73919 17.6818L6.72052 17.7013L6.70184 17.7212L6.68317 17.741L6.66479 17.7608L6.64669 17.7809L6.6283 17.801L6.61021 17.8211L6.5924 17.8415L6.5743 17.8622L6.55678 17.8826L6.53897 17.9033L6.52173 17.9243L6.50421 17.9449L6.48697 17.9659L6.47002 17.9872L6.45307 18.0084L6.43613 18.0297L6.41946 18.0509L6.4028 18.0725L6.38643 18.094L6.37005 18.1156L6.35397 18.1374L6.33788 18.1592L6.32208 18.1814L6.30628 18.2035L6.29048 18.2256L6.27497 18.2477L6.25975 18.2701L6.24452 18.2925L6.2293 18.3149L6.21436 18.3376L6.19942 18.36L6.18477 18.383L6.17012 18.406L6.15576 18.4287L6.14168 18.4517L6.12732 18.4749L6.11353 18.4979L6.09945 18.5215L6.08595 18.5448L6.07216 18.5683L6.05895 18.5916L6.04545 18.6151L6.03252 18.639L6.01931 18.6625L6.00667 18.6864L5.99374 18.7105L5.98139 18.7343L5.96875 18.7585L5.95668 18.7826L5.94462 18.8067L5.93255 18.8312L5.92049 18.8556L5.909 18.88L5.89751 18.9044L5.88602 18.9288L5.87481 18.9535L5.86361 18.9782L5.85269 19.0032L5.84207 19.0279L5.83144 19.0529L5.82081 19.0779L5.81047 19.1029L5.80013 19.1282L5.79036 19.1535L5.7803 19.1785L5.77054 19.204L5.76106 19.2293L5.75158 19.2549L5.74238 19.2804L5.73319 19.306L5.72429 19.3319L5.71538 19.3574L5.70676 19.3833L5.69815 19.4091L5.68982 19.4353L5.68177 19.4611L5.67373 19.4873L5.66569 19.5134L5.65793 19.5398L5.65046 19.566L5.64299 19.5924L5.63581 19.6188L5.62863 19.6453L5.62173 19.672L5.61513 19.6987L5.60852 19.7254L5.60191 19.7521L5.59559 19.7788L5.58956 19.8058L5.58353 19.8328L5.57778 19.8598L5.57204 19.8868L5.56658 19.9141L5.56141 19.9414L5.55624 19.9687L5.55107 19.996L5.54647 20.0236L5.54159 20.0512L5.53728 20.0787L5.53297 20.1066L5.52866 20.1342L5.52464 20.162L5.52091 20.1899L5.51717 20.2181L5.51372 20.2459L5.51056 20.2741L5.5074 20.3025L5.50424 20.3307L5.50166 20.3591L5.49907 20.3875L5.49649 20.416L5.49419 20.4447L5.49218 20.4734L5.49017 20.5022L5.48844 20.5312L5.48701 20.5599L5.48557 20.5889L5.48442 20.6182L5.48327 20.6472L5.48241 20.6765L5.48184 20.7061L5.48126 20.7354L5.48098 20.765V20.7949V20.8245L5.48126 20.8541L5.48184 20.8834L5.48241 20.9129L5.48327 20.9422L5.48442 20.9713L5.48557 21.0006L5.48701 21.0296L5.48844 21.0586L5.49017 21.0873L5.49218 21.116L5.49419 21.1448L5.49649 21.1735L5.49907 21.2019L5.50166 21.2304L5.50424 21.2588L5.5074 21.287L5.51056 21.3154L5.51372 21.3436L5.51717 21.3714L5.52091 21.3996L5.52464 21.4274L5.52866 21.4553L5.53297 21.4829L5.53728 21.5107L5.54159 21.5383L5.54647 21.5659L5.55136 21.5935L5.55624 21.6208L5.56141 21.6481L5.56658 21.6753L5.57204 21.7026L5.57778 21.7296L5.58353 21.7566L5.58956 21.7836L5.59559 21.8106L5.60191 21.8374L5.60852 21.8641L5.61513 21.8911L5.62173 21.9175L5.62863 21.9442L5.63581 21.9706L5.64299 21.9971L5.65046 22.0235L5.65793 22.0496L5.66569 22.0758L5.67373 22.1022L5.68177 22.1281L5.68982 22.1542L5.69815 22.1804L5.70676 22.2062L5.71538 22.2321L5.72429 22.2576L5.73319 22.2835L5.74238 22.309L5.75158 22.3346L5.76106 22.3602L5.77054 22.3855L5.7803 22.4107L5.79036 22.436L5.80013 22.4613L5.81047 22.4866L5.82081 22.5116L5.83115 22.5366L5.84207 22.5615L5.85269 22.5865L5.86361 22.611L5.87481 22.6359L5.88602 22.6607L5.89751 22.6851L5.909 22.7098L5.92049 22.7339L5.93255 22.7583L5.94462 22.7827L5.95668 22.8069L5.96875 22.831L5.98139 22.8551L5.99403 22.8793L6.00667 22.9028L6.01931 22.9269L6.03252 22.9508L6.04545 22.9741L6.05895 22.9979L6.07216 23.0212L6.08595 23.0447L6.09974 23.0683L6.11353 23.0913L6.12732 23.1145L6.14168 23.1378L6.15576 23.1608L6.17041 23.1838L6.18477 23.2065L6.19942 23.2291L6.21436 23.2518L6.2293 23.2745L6.24452 23.2969L6.25975 23.3193L6.27497 23.3418L6.29077 23.3642L6.30628 23.386L6.32208 23.4081L6.33788 23.4302L6.35397 23.4521L6.37005 23.4739L6.38643 23.4954L6.4028 23.517L6.41946 23.5385L6.43613 23.5598L6.45307 23.5813L6.47002 23.6023L6.48697 23.6233L6.50421 23.6445L6.52173 23.6655L6.53897 23.6862L6.55649 23.7066L6.5743 23.7273L6.5924 23.7479L6.61021 23.7683L6.6283 23.7884L6.64669 23.8086L6.66479 23.8287L6.68317 23.8485L6.70184 23.8683L6.72052 23.8878L6.73919 23.9077L6.75843 23.9272L6.77739 23.9464L6.79635 23.9657L6.81589 23.9849L6.83513 24.0042L6.85467 24.0229L6.8742 24.0415L6.89373 24.0605L6.91384 24.0789L6.93366 24.0973L6.95377 24.1156L6.97388 24.134L6.99399 24.1521L7.01438 24.1699L7.03507 24.1877L7.05546 24.2056L7.07615 24.2231L7.09712 24.2406L7.11809 24.2581L7.13906 24.2754L7.15974 24.2923L7.18128 24.3093L7.20254 24.3262L7.22351 24.3426L7.24506 24.3592L7.26689 24.3759L7.28872 24.3923L7.31027 24.4084L7.3321 24.4242L7.35422 24.4402L7.37605 24.456L7.39817 24.4716L7.42058 24.4874L7.44269 24.5026L7.4651 24.5178L7.48779 24.533L7.51049 24.548L7.53318 24.5629L7.55588 24.5776L7.57857 24.5919L7.60155 24.6063L7.62482 24.6206L7.64751 24.6347L7.67078 24.6488L7.69405 24.6626L7.7176 24.6764L7.74116 24.6902L7.76443 24.7034L7.78798 24.7166L7.81183 24.7298L7.83538 24.7427L7.85923 24.7557L7.88336 24.7686L7.9072 24.7809L7.93104 24.7933L7.95546 24.8056L7.97988 24.818L8.00372 24.8298L8.02814 24.8416L8.05255 24.8533L8.07726 24.8648L8.10168 24.8763L8.12638 24.8875L8.15108 24.8987L8.17608 24.9096L8.20107 24.9206L8.22549 24.9309L8.25048 24.9415L8.27604 24.9519L8.30104 24.9619L8.32631 24.972L8.35159 24.982L8.37687 24.9918L8.40215 25.0013L8.42743 25.0105L8.45329 25.0199L8.47914 25.0291L8.50442 25.038L8.53027 25.0469L8.55641 25.0556L8.58198 25.0639L8.60783 25.0722L8.63397 25.0806L8.66011 25.0886L8.68626 25.0964L8.71268 25.1041L8.73882 25.1119L8.76497 25.119L8.79139 25.1262L8.81811 25.1334L8.84482 25.1406L8.87125 25.1472L8.89797 25.1538L8.92497 25.1604L8.95197 25.1667L8.9784 25.1728L9.0054 25.1785L9.03269 25.1845L9.0597 25.19L9.08727 25.1957L9.11428 25.2009L9.14157 25.2061L9.16886 25.211L9.19615 25.2159L9.22401 25.2205L9.25159 25.225L9.27945 25.2294L9.30703 25.2337L9.33489 25.2374L9.36276 25.2414L9.39062 25.2449L9.41877 25.2483L9.44693 25.2518L9.47537 25.2549L9.50352 25.2578L9.53196 25.2607L9.56068 25.2633L9.58912 25.2658L9.61727 25.2681L9.64629 25.2701L9.67473 25.2722L9.70374 25.2739L9.73275 25.2753L9.76177 25.2768L9.79107 25.2779L9.82037 25.2791L9.84938 25.2799L9.87868 25.2805L9.90856 25.2808L9.93786 25.2811L9.96745 25.2814L9.99704 25.2811L10.0266 25.2808L10.0565 25.2805L10.0858 25.2799L10.1145 25.2791L10.1438 25.2779L10.1734 25.2768L10.2024 25.2753L10.2314 25.2739L10.2602 25.2722L10.2889 25.2701L10.3176 25.2681L10.3461 25.2658L10.3745 25.2633L10.4032 25.2607L10.4317 25.2578L10.4598 25.2549L10.4883 25.2518L10.5164 25.2483L10.5443 25.2449L10.5721 25.2414L10.6003 25.2374L10.6282 25.2337L10.6557 25.2294L10.6836 25.225L10.7112 25.2205L10.7387 25.2159L10.766 25.211L10.7936 25.2061L10.8209 25.2009L10.8479 25.1957L10.8755 25.19L10.9025 25.1845L10.9298 25.1785L10.9568 25.1728L10.9832 25.1667L11.0102 25.1604L11.0372 25.1538L11.0636 25.1472L11.0904 25.1406L11.1168 25.1334L11.1438 25.1262L11.1699 25.119L11.1961 25.1119L11.2225 25.1041L11.2489 25.0964L11.2748 25.0886L11.3009 25.0806L11.3273 25.0722L11.3529 25.0639L11.3788 25.0556L11.4046 25.0469L11.4308 25.038L11.456 25.0291L11.4819 25.0199L11.5078 25.0105L11.533 25.0013L11.5583 24.9918L11.5836 24.982L11.6089 24.972L11.6341 24.9619L11.6591 24.9519L11.6847 24.9415L11.7097 24.9309L11.7341 24.9206L11.7591 24.9096L11.7838 24.8987L11.8085 24.8875L11.8332 24.8763L11.8579 24.8648L11.8823 24.8533L11.907 24.8416L11.9315 24.8298L11.9553 24.818L11.9797 24.8056L12.0039 24.7933L12.028 24.7809L12.0518 24.7686L12.0757 24.7557L12.0995 24.7427L12.1234 24.7298L12.1469 24.7166L12.1708 24.7034L12.194 24.6902L12.2176 24.6764L12.2408 24.6626L12.2641 24.6488L12.2874 24.6347L12.3104 24.6206L12.3336 24.6063L12.3566 24.5919L12.3793 24.5776L12.402 24.5629L12.4247 24.548L12.4471 24.533L12.4701 24.5178L12.4922 24.5026L12.5143 24.4874L12.537 24.4716L12.5588 24.456L12.581 24.4402L12.6031 24.4242L12.6249 24.4084L12.6465 24.3923L12.6683 24.3759L12.6898 24.3592L12.7114 24.3426L12.7326 24.3262L12.7539 24.3093L12.7752 24.2923L12.7961 24.2754L12.8171 24.2581L12.8381 24.2406L12.859 24.2231L12.8797 24.2056L12.9001 24.1877L12.9205 24.1699L12.9409 24.1521L12.9613 24.134L12.9814 24.1156L13.0015 24.0973L13.0213 24.0789L13.0412 24.0605L13.061 24.0415L13.0805 24.0229L13.0998 24.0042L13.1193 23.9849L13.1388 23.9657L13.1578 23.9464L13.1767 23.9272L13.1957 23.9077L13.2147 23.8878L13.2333 23.8683L13.2517 23.8485L13.2701 23.8287L13.2885 23.8086L13.3069 23.7884L13.3247 23.7683L13.3428 23.7479L13.3606 23.7273L13.3784 23.7066L13.3959 23.6862L13.4132 23.6655L13.4307 23.6445L13.4482 23.6233L13.4652 23.6023L13.4818 23.5813L13.4988 23.5598L13.5157 23.5385L13.5321 23.517L13.5485 23.4954L13.5648 23.4736L13.5809 23.4521L13.597 23.4302L13.6131 23.4081L13.6289 23.386L13.6444 23.3642L13.6599 23.3418L13.6754 23.3193L13.6907 23.2969L13.7059 23.2745L13.7208 23.2518L13.7355 23.2291L13.7501 23.2065L13.7648 23.1838L13.7791 23.1608L13.7935 23.1378L13.8076 23.1145L13.8217 23.0913L13.8354 23.0683L13.8492 23.0447L13.8627 23.0212L13.8762 22.9979L13.8894 22.9741L13.9027 22.9508L13.9156 22.9269L13.9285 22.9028L13.9412 22.8793L13.9538 22.8551L13.9661 22.831L13.9785 22.8069L13.9906 22.7827L14.0026 22.7583L14.0144 22.7339L14.0262 22.7098L14.0377 22.6851L14.0492 22.6604L14.0604 22.6359L14.0713 22.6112L14.0822 22.5865L14.0931 22.5615L14.1037 22.5366L14.1144 22.5116L14.1247 22.4866L14.1348 22.4613L14.1448 22.4363L14.1549 22.4107L14.1644 22.3855L14.1741 22.3602L14.1836 22.3346L14.1928 22.309L14.202 22.2835L14.2109 22.2576L14.2198 22.2321L14.2284 22.2062L14.2367 22.1804L14.2451 22.1542L14.2534 22.1284L14.2615 22.1022L14.2692 22.0758L14.277 22.0496L14.2844 22.0235L14.2919 21.9971L14.2994 21.9706L14.3063 21.9442L14.3132 21.9175L14.3201 21.8911L14.3267 21.8644L14.333 21.8374L14.3393 21.8106L14.3456 21.7836L14.3514 21.7566L14.3574 21.7296L14.3629 21.7026L14.3683 21.6753L14.3738 21.6481L14.3789 21.6208L14.3838 21.5935L14.3887 21.5659L14.3933 21.5383L14.3979 21.5107L14.4022 21.4829L14.4062 21.4553L14.4103 21.4274L14.4143 21.3996L14.4177 21.3714L14.4212 21.3433L14.4246 21.3154L14.4278 21.287L14.4307 21.2588L14.4335 21.2304L14.4361 21.2019L14.4387 21.1735L14.4407 21.1448L14.443 21.116L14.4447 21.0873L14.4467 21.0583L14.4482 21.0296L14.4496 21.0006L14.4508 20.9713L14.4516 20.9422L14.4525 20.9129L14.4533 20.8834L14.4536 20.8541L14.4539 20.8245L14.4542 20.7949L14.4539 20.765L14.4536 20.7354L14.4533 20.7061L14.4525 20.6765L14.4516 20.6472L14.4508 20.6182L14.4496 20.5889L14.4482 20.5599L14.4467 20.5312L14.4447 20.5022L14.443 20.4734L14.4407 20.4447L14.4387 20.4163L14.4361 20.3875L14.4335 20.3591L14.4307 20.3307L14.4278 20.3025L14.4246 20.2741L14.4212 20.2459L14.4177 20.2181L14.4143 20.1899L14.4103 20.162L14.4062 20.1342L14.4022 20.1066L14.3979 20.0787L14.3933 20.0512L14.3887 20.0236L14.3838 19.996L14.3789 19.9687L14.3738 19.9414L14.3683 19.9141L14.3629 19.8868L14.3574 19.8598L14.3514 19.8328L14.3456 19.8058L14.3393 19.7788L14.333 19.7521L14.3267 19.7251L14.3201 19.6987L14.3132 19.672L14.3063 19.6453L14.2994 19.6188L14.2919 19.5924L14.2847 19.566L14.277 19.5398L14.2692 19.5134L14.2615 19.4873L14.2534 19.4611L14.2451 19.4353L14.2367 19.4094L14.2284 19.3833L14.2198 19.3574L14.2109 19.3319L14.202 19.306L14.1928 19.2804L14.1836 19.2549L14.1741 19.2293L14.1644 19.204L14.1546 19.1785L14.1448 19.1532L14.1348 19.1282L14.1247 19.1029L14.1144 19.0779L14.1037 19.0529L14.0931 19.0279L14.0825 19.0032L14.0713 18.9782L14.0604 18.9535L14.0492 18.9291L14.0377 18.9044L14.0262 18.8797L14.0144 18.8556L14.0026 18.8312L13.9906 18.8067L13.9785 18.7826L13.9661 18.7585L13.9538 18.7343L13.9412 18.7102L13.9285 18.6864L13.9156 18.6625L13.9027 18.639L13.8894 18.6151L13.8762 18.5916L13.8627 18.5683L13.8492 18.5448L13.8354 18.5215L13.8217 18.4982L13.8076 18.4749L13.7935 18.4517L13.7791 18.4287L13.7648 18.406L13.7504 18.383L13.7355 18.36L13.7208 18.3376L13.7059 18.3149L13.6907 18.2925L13.6754 18.2701L13.6599 18.2477L13.6444 18.2256L13.6289 18.2035L13.6131 18.1814L13.597 18.1592L13.5809 18.1374L13.5648 18.1159L13.5485 18.094L13.5321 18.0725L13.5154 18.0509L13.4988 18.0297L13.4821 18.0084L13.4652 17.9872L13.4479 17.9662L13.4307 17.9449L13.4135 17.9243L13.3959 17.9033L13.3784 17.8826L13.3606 17.8622L13.3428 17.8415L13.3247 17.8211L13.3069 17.801L13.2885 17.7809L13.2704 17.7608L13.252 17.741L13.2333 17.7212L13.2144 17.7013L13.1957 17.6818L13.1767 17.6623L13.1578 17.6427L13.1385 17.6238L13.1193 17.6045L13.1 17.5856L13.0805 17.5666L13.061 17.5477L13.0412 17.529L13.0213 17.5106L13.0015 17.4922L12.9814 17.4735L12.9613 17.4555L12.9409 17.4374L12.9205 17.4195L12.9001 17.4017L12.8797 17.3839L12.8587 17.3664L12.8381 17.3489L12.8174 17.3316L12.7961 17.3144L12.7752 17.2972L12.7539 17.2802L12.7326 17.2633L12.7114 17.2469L12.6898 17.2302L12.6683 17.2136L12.6465 17.1975L12.6249 17.1811L12.6028 17.165L12.581 17.1492L12.5588 17.1334L12.5367 17.1176L12.5146 17.1024L12.4922 17.0869L12.4698 17.0717L12.4474 17.0564L12.4247 17.0415L12.402 17.0266L12.3793 17.0119L12.3566 16.9976L12.3336 16.9832L12.3104 16.9688L12.2874 16.9548L12.2641 16.9407L12.2408 16.9269L12.2176 16.9131L12.194 16.8993L12.1708 16.8861L12.1472 16.8729L12.1234 16.8597L12.0995 16.8467L12.0757 16.8338L12.0518 16.8209L12.0277 16.8085L12.0039 16.7962L11.9797 16.7838L11.9556 16.7718L11.9312 16.7597L11.9068 16.7479L11.8823 16.7361L11.8579 16.7247L11.8332 16.7132L11.8088 16.702L11.7838 16.6908L11.7594 16.6798L11.7344 16.6692L11.7094 16.6586L11.6844 16.648L11.6591 16.6376L11.6341 16.6276L11.6092 16.6175L11.5836 16.6075L11.5583 16.5977L11.533 16.5882L11.5075 16.5787L11.4819 16.5695L11.4563 16.5603L11.4308 16.5514L11.4046 16.5425L11.3791 16.5339L11.3529 16.5256L11.3271 16.517L11.3012 16.5089L11.2751 16.5009L11.2486 16.4931L11.2225 16.4854L11.1961 16.4776L11.1699 16.4704L11.1435 16.463L11.1168 16.4561L11.0904 16.4492L11.0636 16.4423L11.0369 16.4357L11.0102 16.4291L10.9835 16.423L10.9565 16.4167L10.9295 16.4107L10.9025 16.4049L10.8755 16.3995L10.8482 16.394L10.8209 16.3886L10.7936 16.3834L10.766 16.3785L10.7385 16.3736L10.7112 16.369L10.6836 16.3644L10.6557 16.3601L10.6282 16.3558L10.6003 16.3521L10.5724 16.3481L10.5443 16.3446L10.5161 16.3409L10.488 16.3377L10.4598 16.3346L10.4317 16.3317L10.4032 16.3288L10.3748 16.3262L10.3463 16.3236L10.3176 16.3213L10.2889 16.3193L10.2602 16.3173L10.2314 16.3156L10.2024 16.3142L10.1731 16.3127L10.1441 16.3116L10.1151 16.3104L10.0855 16.3096L10.0562 16.309L10.0266 16.3087L9.99732 16.3084L9.96745 16.3081L9.93786 16.3084Z" fill="#F65165"/>
<path fill-rule="evenodd" clip-rule="evenodd" d="M54.4068 10.8274L54.4711 10.828L54.5355 10.8292L54.5995 10.8306L54.6636 10.8323L54.7277 10.8346L54.7914 10.8372L54.8552 10.8401L54.9187 10.8435L54.9822 10.8475L55.0457 10.8516L55.1089 10.8562L55.1721 10.8613L55.2353 10.8668L55.2982 10.8725L55.3611 10.8786L55.4237 10.8852L55.4863 10.8924L55.5489 10.8995L55.6113 10.9073L55.6736 10.9153L55.7357 10.924L55.7977 10.9329L55.8595 10.9421L55.9212 10.9518L55.983 10.9619L56.0445 10.9722L56.106 10.9831L56.1671 10.994L56.2283 11.0055L56.2892 11.0176L56.3501 11.03L56.411 11.0426L56.4716 11.0555L56.532 11.0687L56.5923 11.0825L56.6526 11.0966L56.7126 11.1113L56.7724 11.1259L56.8324 11.1411L56.8919 11.1566L56.9514 11.1727L57.0108 11.1891L57.07 11.2055L57.1289 11.2227L57.1878 11.2399L57.2467 11.2575L57.3053 11.2756L57.3636 11.294L57.4219 11.3126L57.4799 11.3319L57.538 11.3514L57.5957 11.3709L57.6534 11.391L57.7109 11.4117L57.7681 11.4324L57.8252 11.4537L57.8824 11.4749L57.9393 11.4968L57.9959 11.5192L58.0524 11.5416L58.1087 11.5643L58.1648 11.5875L58.2208 11.6111L58.2765 11.6349L58.3322 11.6591L58.3877 11.6835L58.4428 11.7082L58.498 11.7335L58.5529 11.7587L58.6077 11.7846L58.6623 11.8107L58.7166 11.8372L58.7709 11.8639L58.8249 11.8909L58.8786 11.9185L58.9323 11.946L58.9858 11.9739L59.0389 12.0023L59.092 12.0311L59.1449 12.0598L59.1975 12.0891L59.25 12.1187L59.3023 12.1486L59.3543 12.1787L59.4063 12.2092L59.458 12.2399L59.5094 12.2712L59.5606 12.3025L59.6117 12.3341L59.6626 12.366L59.7134 12.3985L59.7637 12.4309L59.8139 12.464L59.8639 12.497L59.9139 12.5303L59.9633 12.5642L60.0127 12.5981L60.0621 12.6326L60.111 12.6671L60.1598 12.7021L60.2084 12.7372L60.2566 12.7728L60.3046 12.8084L60.3526 12.8446L60.4002 12.8808L60.4476 12.9173L60.4948 12.9543L60.5419 12.9914L60.5884 13.0287L60.6349 13.0666L60.6812 13.1046L60.7271 13.1428L60.7731 13.1813L60.8188 13.22L60.8639 13.2591L60.909 13.2985L60.9541 13.3378L60.9986 13.3778L61.0429 13.418L61.0871 13.4582L61.131 13.499L61.1747 13.5398L61.2181 13.5809L61.2612 13.6222L61.3043 13.6639L61.3468 13.7058L61.3893 13.748L61.4315 13.7906L61.4732 13.8331L61.5148 13.8759L61.5565 13.9192L61.5976 13.9626L61.6383 14.0063L61.6789 14.0502L61.7194 14.0942L61.7596 14.1387L61.7992 14.1832L61.8389 14.2281L61.8782 14.2732L61.9173 14.3185L61.9561 14.3642L61.9946 14.4099L62.0328 14.4559L62.0707 14.5024L62.1083 14.5486L62.1459 14.5955L62.183 14.6426L62.2198 14.6897L62.2565 14.7371L62.2927 14.7848L62.3286 14.8325L62.3645 14.8807L62.3999 14.929L62.4352 14.9775L62.47 15.0264L62.5047 15.0752L62.5389 15.1243L62.5731 15.1737L62.6067 15.2234L62.6403 15.2731L62.6734 15.3234L62.7064 15.3734L62.7388 15.4239L62.771 15.4745L62.8032 15.5256L62.8348 15.5765L62.8661 15.6279L62.8971 15.6793L62.9279 15.731L62.9586 15.783L62.9888 15.835L63.0186 15.8873L63.0479 15.9399L63.0772 15.9924L63.1063 16.0453L63.135 16.0984L63.1631 16.1516L63.1913 16.205L63.2189 16.2587L63.2462 16.3124L63.2734 16.3664L63.3002 16.4207L63.3266 16.475L63.3527 16.5296L63.3783 16.5842L63.4039 16.6393L63.4289 16.6942L63.4538 16.7496L63.4783 16.8051L63.5024 16.8605L63.5262 16.9165L63.5498 16.9726L63.5728 17.0286L63.5958 17.0849L63.6182 17.1415L63.6403 17.1981L63.6621 17.2549L63.6837 17.3118L63.7049 17.369L63.7256 17.4264L63.746 17.4839L63.7661 17.5413L63.7859 17.5994L63.8055 17.6571L63.8244 17.7154L63.8431 17.7737L63.8615 17.8321L63.8796 17.8907L63.8974 17.9493L63.9146 18.0081L63.9316 18.0673L63.9482 18.1265L63.9646 18.186L63.9804 18.2454L63.9959 18.3049L64.0111 18.3646L64.0261 18.4247L64.0404 18.4847L64.0545 18.5448L64.0683 18.6051L64.0818 18.6657L64.0947 18.7263L64.1074 18.7869L64.1197 18.8478L64.1315 18.909L64.143 18.9699L64.1542 19.0314L64.1651 19.0926L64.1755 19.1543L64.1855 19.2158L64.195 19.2776L64.2045 19.3396L64.2134 19.4017L64.2217 19.4637L64.23 19.526L64.2375 19.5884L64.245 19.651L64.2519 19.7136L64.2585 19.7762L64.2648 19.8392L64.2705 19.9021L64.276 19.965L64.2809 20.0282L64.2855 20.0917L64.2898 20.1549L64.2935 20.2186L64.297 20.2821L64.3001 20.3459L64.3027 20.4097L64.305 20.4737L64.3067 20.5378L64.3082 20.6018L64.3093 20.6659L64.3099 20.7302V20.7946V20.8592L64.3093 20.9236L64.3082 20.9876L64.3067 21.0517L64.305 21.1158L64.3027 21.1798L64.3001 21.2436L64.297 21.3074L64.2935 21.3708L64.2898 21.4343L64.2855 21.4978L64.2809 21.5613L64.276 21.6245L64.2705 21.6874L64.2648 21.7503L64.2585 21.8132L64.2519 21.8759L64.245 21.9385L64.2375 22.0011L64.23 22.0634L64.2217 22.1258L64.2134 22.1878L64.2045 22.2499L64.195 22.3119L64.1855 22.3737L64.1755 22.4352L64.1651 22.4969L64.1542 22.5581L64.143 22.6196L64.1315 22.6805L64.1197 22.7417L64.1074 22.8026L64.0947 22.8632L64.0818 22.9238L64.0683 22.9844L64.0545 23.0447L64.0404 23.1048L64.0261 23.1648L64.0111 23.2248L63.9959 23.2846L63.9804 23.3441L63.9646 23.4035L63.9482 23.463L63.9316 23.5222L63.9146 23.5813L63.8974 23.6402L63.8796 23.6988L63.8615 23.7574L63.8431 23.8157L63.8244 23.8741L63.8055 23.9324L63.7859 23.9901L63.7661 24.0481L63.746 24.1056L63.7256 24.163L63.7049 24.2205L63.6837 24.2777L63.6621 24.3345L63.6403 24.3914L63.6182 24.448L63.5958 24.5046L63.5728 24.5609L63.5498 24.6169L63.5262 24.6729L63.5024 24.7289L63.4783 24.7844L63.4538 24.8398L63.4289 24.8953L63.4039 24.9501L63.3783 25.0053L63.3527 25.0599L63.3266 25.1145L63.3002 25.1687L63.2734 25.223L63.2462 25.277L63.2189 25.3308L63.1913 25.3845L63.1631 25.4379L63.135 25.4911L63.1063 25.5442L63.0772 25.5971L63.0479 25.6496L63.0186 25.7022L62.9888 25.7545L62.9586 25.8065L62.9279 25.8585L62.8971 25.9102L62.8661 25.9616L62.8348 26.013L62.8032 26.0639L62.771 26.115L62.7388 26.1655L62.7064 26.2161L62.6734 26.2661L62.6403 26.3164L62.6067 26.3661L62.5731 26.4158L62.5389 26.4652L62.5047 26.5143L62.47 26.5631L62.4352 26.612L62.3999 26.6605L62.3645 26.7088L62.3286 26.757L62.2927 26.8047L62.2565 26.8524L62.2198 26.8998L62.183 26.9469L62.1459 26.994L62.1083 27.0408L62.0707 27.0871L62.0328 27.1336L61.9946 27.1796L61.9561 27.2253L61.9173 27.2709L61.8782 27.3163L61.8389 27.3614L61.7992 27.4062L61.7596 27.4508L61.7194 27.4953L61.6789 27.5392L61.6383 27.5832L61.5976 27.6269L61.5565 27.6702L61.5148 27.7136L61.4732 27.7564L61.4315 27.7989L61.3893 27.8414L61.3468 27.8837L61.3043 27.9256L61.2612 27.9673L61.2181 28.0086L61.1747 28.0497L61.131 28.0905L61.0871 28.1313L61.0429 28.1715L60.9986 28.2117L60.9541 28.2516L60.909 28.291L60.8639 28.3304L60.8188 28.3694L60.7731 28.4082L60.7271 28.4467L60.6812 28.4849L60.6349 28.5228L60.5884 28.5607L60.5419 28.5981L60.4948 28.6351L60.4476 28.6722L60.4002 28.7087L60.3526 28.7449L60.3046 28.7811L60.2566 28.8167L60.2084 28.8523L60.1598 28.8874L60.111 28.9224L60.0621 28.9569L60.0127 28.9914L59.9633 29.0252L59.9139 29.0591L59.8639 29.0925L59.8139 29.1255L59.7637 29.1585L59.7134 29.191L59.6626 29.2235L59.6117 29.2553L59.5606 29.2869L59.5094 29.3183L59.458 29.3496L59.4063 29.3803L59.3543 29.4108L59.3023 29.4409L59.25 29.4708L59.1975 29.5004L59.1449 29.5297L59.092 29.5584L59.0389 29.5871L58.9858 29.6156L58.9323 29.6434L58.8786 29.671L58.8249 29.6986L58.7709 29.7256L58.7166 29.7523L58.6623 29.7787L58.6077 29.8049L58.5529 29.8307L58.498 29.856L58.4428 29.8813L58.3877 29.906L58.3322 29.9304L58.2765 29.9545L58.2208 29.9784L58.1648 30.0019L58.1087 30.0252L58.0524 30.0479L57.9959 30.0703L57.9393 30.0927L57.8824 30.1145L57.8252 30.1358L57.7681 30.1571L57.7109 30.1777L57.6534 30.1984L57.5957 30.2185L57.538 30.2381L57.4799 30.2576L57.4219 30.2769L57.3636 30.2955L57.3053 30.3139L57.2467 30.332L57.1878 30.3495L57.1289 30.3668L57.07 30.384L57.0108 30.4004L56.9514 30.4167L56.8919 30.4328L56.8324 30.4483L56.7724 30.4636L56.7126 30.4782L56.6526 30.4929L56.5923 30.507L56.532 30.5207L56.4716 30.534L56.411 30.5469L56.3501 30.5595L56.2892 30.5719L56.2283 30.5839L56.1671 30.5954L56.106 30.6063L56.0445 30.6173L55.983 30.6276L55.9212 30.6377L55.8595 30.6474L55.7977 30.6566L55.7357 30.6655L55.6736 30.6741L55.6113 30.6822L55.5489 30.6899L55.4863 30.6971L55.4237 30.7043L55.3611 30.7109L55.2982 30.7169L55.2353 30.7227L55.1721 30.7281L55.1089 30.7333L55.0457 30.7379L54.9822 30.7419L54.9187 30.746L54.8552 30.7494L54.7914 30.7523L54.7277 30.7549L54.6636 30.7572L54.5995 30.7589L54.5355 30.7603L54.4711 30.7615L54.4068 30.762L54.3424 30.7623L54.2781 30.762L54.2138 30.7615L54.1494 30.7603L54.0853 30.7589L54.0213 30.7572L53.9575 30.7549L53.8937 30.7523L53.83 30.7494L53.7662 30.746L53.7027 30.7419L53.6392 30.7379L53.576 30.7333L53.5128 30.7281L53.4499 30.7227L53.3867 30.7169L53.3241 30.7109L53.2612 30.7043L53.1986 30.6971L53.1362 30.6899L53.0736 30.6822L53.0116 30.6741L52.9492 30.6655L52.8872 30.6566L52.8254 30.6474L52.7636 30.6377L52.7019 30.6276L52.6404 30.6173L52.5789 30.6063L52.5178 30.5954L52.4566 30.5839L52.3957 30.5719L52.3348 30.5595L52.2739 30.5469L52.2133 30.534L52.1529 30.5207L52.0926 30.507L52.0323 30.4929L51.9722 30.4782L51.9125 30.4636L51.8527 30.4483L51.793 30.4328L51.7335 30.4167L51.6743 30.4004L51.6152 30.384L51.556 30.3668L51.4971 30.3495L51.4385 30.332L51.3799 30.3139L51.3213 30.2955L51.263 30.2769L51.205 30.2576L51.1469 30.2381L51.0892 30.2185L51.0315 30.1984L50.974 30.1777L50.9168 30.1571L50.8597 30.1358L50.8025 30.1145L50.7459 30.0927L50.689 30.0703L50.6327 30.0479L50.5764 30.0252L50.5201 30.0019L50.4641 29.9784L50.4084 29.9545L50.3527 29.9304L50.2972 29.906L50.2421 29.8813L50.1869 29.856L50.132 29.8307L50.0772 29.8049L50.0229 29.7787L49.9683 29.7523L49.9143 29.7256L49.8603 29.6986L49.8063 29.671L49.7528 29.6434L49.6994 29.6156L49.646 29.5871L49.5931 29.5584L49.5403 29.5297L49.4874 29.5004L49.4351 29.4708L49.3829 29.4409L49.3306 29.4108L49.2789 29.3803L49.2272 29.3496L49.1757 29.3183L49.1243 29.2869L49.0732 29.2553L49.0223 29.2235L48.9718 29.191L48.9212 29.1585L48.8709 29.1255L48.821 29.0925L48.7713 29.0591L48.7216 29.0252L48.6722 28.9914L48.623 28.9569L48.5739 28.9224L48.5254 28.8874L48.4768 28.8523L48.4283 28.8167L48.3803 28.7811L48.3323 28.7449L48.2849 28.7087L48.2375 28.6722L48.1901 28.6351L48.1433 28.5981L48.0965 28.5607L48.05 28.5228L48.0037 28.4849L47.9577 28.4467L47.9118 28.4082L47.8664 28.3694L47.821 28.3304L47.7759 28.291L47.7311 28.2516L47.6863 28.2117L47.642 28.1715L47.5978 28.1313L47.5538 28.0905L47.5102 28.0497L47.4668 28.0086L47.4237 27.9673L47.3809 27.9256L47.3381 27.8837L47.2959 27.8414L47.2537 27.7989L47.2117 27.7564L47.1701 27.7136L47.1287 27.6702L47.0876 27.6269L47.0465 27.5832L47.006 27.5392L46.9655 27.4953L46.9256 27.4508L46.8857 27.4062L46.846 27.3614L46.8067 27.3163L46.7679 27.2709L46.7291 27.2253L46.6903 27.1796L46.6521 27.1336L46.6142 27.0871L46.5766 27.0408L46.5392 26.994L46.5019 26.9469L46.4651 26.8998L46.4286 26.8524L46.3922 26.8047L46.3562 26.757L46.3203 26.7088L46.285 26.6605L46.25 26.612L46.2149 26.5631L46.1804 26.5143L46.146 26.4652L46.1121 26.4158L46.0782 26.3661L46.0449 26.3164L46.0115 26.2661L45.9788 26.2161L45.946 26.1655L45.9139 26.115L45.882 26.0639L45.8501 26.013L45.8188 25.9616L45.7878 25.9102L45.757 25.8585L45.7266 25.8065L45.6964 25.7545L45.6665 25.7022L45.6369 25.6496L45.6076 25.5971L45.5786 25.5442L45.5502 25.4911L45.5218 25.4379L45.4939 25.3845L45.466 25.3308L45.4387 25.277L45.4117 25.223L45.385 25.1687L45.3586 25.1145L45.3324 25.0599L45.3066 25.0053L45.281 24.9501L45.256 24.8953L45.2313 24.8398L45.2066 24.7844L45.1825 24.7289L45.1587 24.6729L45.1354 24.6169L45.1121 24.5609L45.0894 24.5046L45.0667 24.448L45.0446 24.3914L45.0228 24.3345L45.0012 24.2777L44.9803 24.2205L44.9593 24.163L44.9389 24.1056L44.9188 24.0481L44.899 23.9901L44.8797 23.9324L44.8605 23.8741L44.8418 23.8157L44.8234 23.7574L44.8053 23.6988L44.7878 23.6402L44.7703 23.5813L44.7533 23.5222L44.7367 23.463L44.7206 23.4035L44.7045 23.3441L44.689 23.2846L44.6738 23.2248L44.6588 23.1648L44.6444 23.1048L44.6304 23.0447L44.6166 22.9844L44.6034 22.9238L44.5902 22.8632L44.5775 22.8026L44.5655 22.7417L44.5534 22.6805L44.5419 22.6196L44.5307 22.5581L44.5201 22.4969L44.5094 22.4352L44.4997 22.3737L44.4899 22.3119L44.4807 22.2499L44.4718 22.1878L44.4632 22.1258L44.4551 22.0634L44.4474 22.0011L44.4399 21.9385L44.433 21.8759L44.4264 21.8132L44.4204 21.7503L44.4144 21.6874L44.4092 21.6245L44.404 21.5613L44.3994 21.4978L44.3951 21.4343L44.3914 21.3708L44.3879 21.3074L44.3848 21.2436L44.3822 21.1798L44.3802 21.1158L44.3782 21.0517L44.3767 20.9876L44.3759 20.9236L44.3753 20.8592L44.375 20.7946L44.3753 20.7302L44.3759 20.6659L44.3767 20.6018L44.3782 20.5378L44.3802 20.4737L44.3822 20.4097L44.3848 20.3459L44.3879 20.2821L44.3914 20.2186L44.3951 20.1549L44.3994 20.0917L44.404 20.0282L44.4092 19.965L44.4144 19.9021L44.4204 19.8392L44.4264 19.7762L44.433 19.7136L44.4399 19.651L44.4474 19.5884L44.4551 19.526L44.4632 19.4637L44.4718 19.4017L44.4807 19.3396L44.4899 19.2776L44.4997 19.2158L44.5094 19.1543L44.5201 19.0926L44.5307 19.0314L44.5419 18.9699L44.5534 18.909L44.5655 18.8478L44.5775 18.7869L44.5902 18.7263L44.6034 18.6657L44.6166 18.6051L44.6304 18.5448L44.6444 18.4847L44.6588 18.4247L44.6738 18.3646L44.689 18.3049L44.7045 18.2454L44.7206 18.186L44.7367 18.1265L44.7533 18.0673L44.7703 18.0081L44.7878 17.9493L44.8053 17.8907L44.8234 17.8321L44.8418 17.7737L44.8605 17.7154L44.8797 17.6571L44.899 17.5994L44.9188 17.5413L44.9389 17.4839L44.9593 17.4264L44.9803 17.369L45.0012 17.3118L45.0228 17.2549L45.0446 17.1981L45.0667 17.1415L45.0894 17.0849L45.1121 17.0286L45.1354 16.9726L45.1587 16.9165L45.1825 16.8605L45.2066 16.8051L45.2313 16.7496L45.256 16.6942L45.281 16.6393L45.3066 16.5842L45.3324 16.5296L45.3586 16.475L45.385 16.4207L45.4117 16.3664L45.4387 16.3124L45.466 16.2587L45.4939 16.205L45.5218 16.1516L45.5502 16.0984L45.5786 16.0453L45.6076 15.9924L45.6369 15.9399L45.6665 15.8873L45.6964 15.835L45.7266 15.783L45.757 15.731L45.7878 15.6793L45.8188 15.6279L45.8501 15.5765L45.882 15.5256L45.9139 15.4745L45.946 15.4239L45.9788 15.3734L46.0115 15.3234L46.0449 15.2731L46.0782 15.2234L46.1121 15.1737L46.146 15.1243L46.1804 15.0752L46.2149 15.0264L46.25 14.9775L46.285 14.929L46.3203 14.8807L46.3562 14.8325L46.3922 14.7848L46.4286 14.7371L46.4651 14.6897L46.5019 14.6426L46.5392 14.5955L46.5766 14.5486L46.6142 14.5024L46.6521 14.4559L46.6903 14.4099L46.7291 14.3642L46.7679 14.3185L46.8067 14.2732L46.846 14.2281L46.8857 14.1832L46.9256 14.1387L46.9655 14.0942L47.006 14.0502L47.0465 14.0063L47.0876 13.9626L47.1287 13.9192L47.1701 13.8759L47.2117 13.8331L47.2537 13.7906L47.2959 13.748L47.3381 13.7058L47.3809 13.6639L47.4237 13.6222L47.4668 13.5809L47.5102 13.5398L47.5538 13.499L47.5978 13.4582L47.642 13.418L47.6863 13.3778L47.7311 13.3378L47.7759 13.2985L47.821 13.2591L47.8664 13.22L47.9118 13.1813L47.9577 13.1428L48.0037 13.1046L48.05 13.0666L48.0965 13.0287L48.1433 12.9914L48.1901 12.9543L48.2375 12.9173L48.2849 12.8808L48.3323 12.8446L48.3803 12.8084L48.4283 12.7728L48.4768 12.7372L48.5254 12.7021L48.5739 12.6671L48.623 12.6326L48.6722 12.5981L48.7216 12.5642L48.7713 12.5303L48.821 12.497L48.8709 12.464L48.9212 12.4309L48.9718 12.3985L49.0223 12.366L49.0732 12.3341L49.1243 12.3025L49.1757 12.2712L49.2272 12.2399L49.2789 12.2092L49.3306 12.1787L49.3829 12.1486L49.4351 12.1187L49.4874 12.0891L49.5403 12.0598L49.5931 12.0311L49.646 12.0023L49.6994 11.9739L49.7528 11.946L49.8063 11.9185L49.8603 11.8909L49.9143 11.8639L49.9683 11.8372L50.0229 11.8107L50.0772 11.7846L50.132 11.7587L50.1869 11.7335L50.2421 11.7082L50.2972 11.6835L50.3527 11.6591L50.4084 11.6349L50.4641 11.6111L50.5201 11.5875L50.5764 11.5643L50.6327 11.5416L50.689 11.5192L50.7459 11.4968L50.8025 11.4749L50.8597 11.4537L50.9168 11.4324L50.974 11.4117L51.0315 11.391L51.0892 11.3709L51.1469 11.3514L51.205 11.3319L51.263 11.3126L51.3213 11.294L51.3799 11.2756L51.4385 11.2575L51.4971 11.2399L51.556 11.2227L51.6152 11.2055L51.6743 11.1891L51.7335 11.1727L51.793 11.1566L51.8527 11.1411L51.9125 11.1259L51.9722 11.1113L52.0323 11.0966L52.0926 11.0825L52.1529 11.0687L52.2133 11.0555L52.2739 11.0426L52.3348 11.03L52.3957 11.0176L52.4566 11.0055L52.5178 10.994L52.5789 10.9831L52.6404 10.9722L52.7019 10.9619L52.7636 10.9518L52.8254 10.9421L52.8872 10.9329L52.9492 10.924L53.0116 10.9153L53.0736 10.9073L53.1362 10.8995L53.1986 10.8924L53.2612 10.8852L53.3241 10.8786L53.3867 10.8725L53.4499 10.8668L53.5128 10.8613L53.576 10.8562L53.6392 10.8516L53.7027 10.8475L53.7662 10.8435L53.83 10.8401L53.8937 10.8372L53.9575 10.8346L54.0213 10.8323L54.0853 10.8306L54.1494 10.8292L54.2138 10.828L54.2781 10.8274L54.3424 10.8271L54.4068 10.8274ZM54.3129 16.3084L54.2833 16.3087L54.254 16.309L54.2244 16.3096L54.1951 16.3104L54.1661 16.3116L54.1368 16.3127L54.1078 16.3142L54.0787 16.3156L54.05 16.3173L54.0213 16.3193L53.9926 16.3213L53.9638 16.3236L53.9351 16.3262L53.9067 16.3288L53.8785 16.3317L53.8504 16.3346L53.8219 16.3377L53.7938 16.3409L53.7656 16.3446L53.7375 16.3481L53.7099 16.3521L53.682 16.3558L53.6545 16.3601L53.6266 16.3644L53.599 16.369L53.5714 16.3736L53.5439 16.3785L53.5166 16.3834L53.489 16.3886L53.462 16.394L53.4347 16.3995L53.4077 16.4049L53.3804 16.4107L53.3534 16.4167L53.3267 16.423L53.2997 16.4291L53.2733 16.4357L53.2462 16.4423L53.2195 16.4492L53.1931 16.4561L53.1664 16.463L53.14 16.4704L53.1138 16.4776L53.0877 16.4854L53.0613 16.4931L53.0351 16.5009L53.009 16.5089L52.9831 16.517L52.957 16.5256L52.9311 16.5339L52.9053 16.5425L52.8794 16.5514L52.8538 16.5603L52.8283 16.5695L52.8027 16.5787L52.7771 16.5882L52.7519 16.5977L52.7263 16.6075L52.701 16.6175L52.676 16.6276L52.6508 16.6376L52.6255 16.648L52.6008 16.6586L52.5758 16.6692L52.5508 16.6798L52.5261 16.6908L52.5014 16.702L52.4767 16.7132L52.4523 16.7247L52.4276 16.7361L52.4031 16.7479L52.3787 16.7597L52.3546 16.7718L52.3302 16.7838L52.306 16.7962L52.2822 16.8085L52.2584 16.8209L52.2342 16.8338L52.2104 16.8467L52.1865 16.8597L52.1627 16.8729L52.1394 16.8861L52.1159 16.8996L52.0926 16.9131L52.069 16.9269L52.0458 16.9407L52.0228 16.9548L51.9995 16.9688L51.9765 16.9832L51.9536 16.9976L51.9306 17.0119L51.9082 17.0266L51.8852 17.0415L51.8628 17.0564L51.8401 17.0717L51.8177 17.0869L51.7956 17.1021L51.7732 17.1179L51.751 17.1334L51.7289 17.1492L51.7071 17.165L51.6853 17.1811L51.6634 17.1975L51.6419 17.2136L51.6201 17.2302L51.5985 17.2469L51.5773 17.2633L51.556 17.2802L51.535 17.2972L51.5138 17.3144L51.4925 17.3316L51.4718 17.3489L51.4511 17.3661L51.4305 17.3839L51.4098 17.4017L51.3894 17.4195L51.369 17.4374L51.3489 17.4555L51.3288 17.4735L51.3087 17.4919L51.2886 17.5106L51.269 17.529L51.2492 17.5477L51.2294 17.5666L51.2101 17.5856L51.1906 17.6045L51.1714 17.6238L51.1524 17.643L51.1331 17.6623L51.1142 17.6818L51.0955 17.7013L51.0768 17.7212L51.0582 17.741L51.0398 17.7608L51.0214 17.7809L51.0033 17.801L50.9852 17.8211L50.9671 17.8415L50.9493 17.8622L50.9318 17.8826L50.914 17.9033L50.8964 17.9243L50.8792 17.9449L50.862 17.9659L50.845 17.9872L50.8281 18.0084L50.8111 18.0297L50.7945 18.0509L50.7778 18.0725L50.7614 18.094L50.7451 18.1156L50.729 18.1374L50.7129 18.1592L50.6971 18.1814L50.6813 18.2032L50.6655 18.2256L50.65 18.2477L50.6347 18.2701L50.6195 18.2925L50.6043 18.3149L50.5894 18.3376L50.5744 18.3603L50.5598 18.383L50.5451 18.406L50.5308 18.4287L50.5167 18.4517L50.5023 18.4749L50.4885 18.4979L50.4744 18.5215L50.4607 18.5448L50.4472 18.568L50.4339 18.5916L50.4204 18.6151L50.4072 18.639L50.3943 18.6625L50.3817 18.6864L50.3687 18.7102L50.3564 18.7343L50.3437 18.7585L50.3314 18.7826L50.3193 18.8067L50.3076 18.8309L50.2955 18.8556L50.284 18.88L50.2725 18.9044L50.261 18.9288L50.2498 18.9535L50.2386 18.9782L50.2277 19.0032L50.2168 19.0279L50.2061 19.0529L50.1958 19.0779L50.1855 19.1029L50.1751 19.1282L50.1651 19.1535L50.1553 19.1785L50.1455 19.204L50.1361 19.2293L50.1266 19.2549L50.1174 19.2804L50.1082 19.306L50.0993 19.3319L50.0904 19.3574L50.0818 19.3833L50.0731 19.4094L50.0648 19.4353L50.0568 19.4614L50.0487 19.4873L50.0407 19.5134L50.0329 19.5398L50.0255 19.566L50.018 19.5924L50.0108 19.6188L50.0036 19.6453L49.9967 19.672L49.9901 19.6987L49.9835 19.7251L49.9769 19.7518L49.9706 19.7788L49.9646 19.8058L49.9585 19.8328L49.9528 19.8598L49.947 19.8868L49.9416 19.9141L49.9364 19.9414L49.9312 19.9687L49.9261 19.996L49.9215 20.0236L49.9166 20.0512L49.9123 20.0787L49.908 20.1063L49.9037 20.1342L49.8996 20.162L49.8959 20.1899L49.8922 20.2181L49.8887 20.2459L49.8856 20.2741L49.8824 20.3022L49.8792 20.3307L49.8767 20.3591L49.8738 20.3875L49.8715 20.416L49.8692 20.4447L49.8672 20.4734L49.8652 20.5022L49.8634 20.5312L49.862 20.5599L49.8606 20.5892L49.8594 20.6179L49.8583 20.6472L49.8574 20.6765L49.8568 20.7061L49.8563 20.7354L49.856 20.765V20.7949V20.8245L49.8563 20.8541L49.8568 20.8834L49.8574 20.9129L49.8583 20.9422L49.8594 20.9715L49.8606 21.0003L49.862 21.0296L49.8634 21.0583L49.8652 21.0873L49.8672 21.116L49.8692 21.1448L49.8715 21.1735L49.8738 21.2019L49.8767 21.2304L49.8792 21.2588L49.8824 21.2873L49.8856 21.3154L49.8887 21.3433L49.8922 21.3714L49.8959 21.3996L49.8996 21.4274L49.9037 21.4553L49.908 21.4832L49.9123 21.5107L49.9166 21.5383L49.9215 21.5659L49.9261 21.5935L49.9312 21.6208L49.9364 21.6481L49.9416 21.6753L49.947 21.7026L49.9528 21.7296L49.9585 21.7566L49.9646 21.7836L49.9706 21.8106L49.9769 21.8376L49.9835 21.8644L49.9901 21.8911L49.9967 21.9175L50.0036 21.9442L50.0108 21.9706L50.018 21.9971L50.0255 22.0235L50.0329 22.0496L50.0407 22.0758L50.0487 22.1022L50.0568 22.1281L50.0648 22.1542L50.0731 22.1804L50.0818 22.2062L50.0904 22.2321L50.0993 22.2576L50.1082 22.2835L50.1171 22.309L50.1266 22.3346L50.1361 22.3602L50.1455 22.3855L50.1553 22.4107L50.1651 22.436L50.1751 22.4613L50.1855 22.4866L50.1958 22.5116L50.2061 22.5366L50.2168 22.5615L50.2277 22.5863L50.2386 22.611L50.2498 22.6359L50.261 22.6607L50.2725 22.6851L50.284 22.7098L50.2955 22.7339L50.3076 22.7583L50.3193 22.7827L50.3317 22.8069L50.3437 22.831L50.3561 22.8551L50.3687 22.8793L50.3814 22.9028L50.3943 22.9269L50.4075 22.9508L50.4204 22.9741L50.4339 22.9979L50.4472 23.0215L50.4607 23.0447L50.4744 23.0683L50.4885 23.0915L50.5023 23.1145L50.5167 23.1378L50.5308 23.1608L50.5451 23.1835L50.5598 23.2065L50.5744 23.2291L50.5894 23.2518L50.6043 23.2745L50.6195 23.2969L50.6347 23.3193L50.65 23.3418L50.6655 23.3642L50.6813 23.3863L50.6971 23.4081L50.7129 23.4302L50.729 23.4521L50.7451 23.4739L50.7614 23.4954L50.7778 23.517L50.7945 23.5385L50.8111 23.5598L50.8281 23.5813L50.845 23.6023L50.862 23.6233L50.8792 23.6445L50.8967 23.6655L50.914 23.6862L50.9315 23.7066L50.9493 23.7273L50.9671 23.7479L50.9852 23.7683L51.0033 23.7884L51.0214 23.8086L51.0398 23.8287L51.0582 23.8485L51.0768 23.8683L51.0952 23.8878L51.1142 23.9077L51.1334 23.9272L51.1521 23.9464L51.1714 23.9657L51.1906 23.9849L51.2101 24.0042L51.2294 24.0229L51.2492 24.0418L51.2687 24.0605L51.2888 24.0789L51.3087 24.0975L51.3285 24.1156L51.3489 24.134L51.369 24.1521L51.3894 24.1699L51.4101 24.1877L51.4305 24.2056L51.4511 24.2231L51.4718 24.2406L51.4928 24.2581L51.5138 24.2754L51.5347 24.2923L51.556 24.3093L51.5773 24.3262L51.5985 24.3426L51.6201 24.3592L51.6419 24.3759L51.6634 24.3923L51.6853 24.4084L51.7071 24.4242L51.7292 24.4402L51.751 24.456L51.7732 24.4716L51.7956 24.4874L51.8177 24.5026L51.8401 24.5178L51.8628 24.533L51.8855 24.548L51.9082 24.5629L51.9306 24.5776L51.9533 24.5919L51.9765 24.6063L51.9995 24.6206L52.0225 24.6347L52.0458 24.6488L52.069 24.6626L52.0926 24.6764L52.1159 24.6899L52.1394 24.7034L52.163 24.7166L52.1868 24.7298L52.2104 24.7427L52.2342 24.7557L52.2584 24.7686L52.2822 24.7809L52.306 24.7933L52.3302 24.8056L52.3546 24.818L52.3787 24.8298L52.4031 24.8416L52.4276 24.8533L52.452 24.8648L52.4767 24.8763L52.5014 24.8875L52.5261 24.8987L52.5508 24.9096L52.5761 24.9206L52.6005 24.9309L52.6255 24.9412L52.6508 24.9519L52.676 24.9619L52.701 24.972L52.7266 24.982L52.7519 24.9918L52.7771 25.0013L52.8024 25.0105L52.828 25.0199L52.8538 25.0291L52.8794 25.038L52.9053 25.0469L52.9314 25.0556L52.957 25.0639L52.9828 25.0722L53.009 25.0806L53.0351 25.0886L53.0613 25.0964L53.0877 25.1041L53.1138 25.1119L53.14 25.119L53.1664 25.1262L53.1931 25.1334L53.2198 25.1406L53.2462 25.1472L53.273 25.1538L53.2997 25.1604L53.3267 25.1667L53.3534 25.1728L53.3804 25.1785L53.4077 25.1845L53.4347 25.19L53.4623 25.1957L53.4893 25.2009L53.5166 25.2061L53.5439 25.211L53.5711 25.2159L53.599 25.2205L53.6266 25.225L53.6545 25.2294L53.682 25.2337L53.7099 25.2374L53.7378 25.2414L53.7656 25.2449L53.7938 25.2483L53.8219 25.2518L53.8504 25.2549L53.8785 25.2578L53.907 25.2607L53.9354 25.2633L53.9638 25.2658L53.9923 25.2681L54.021 25.2701L54.0497 25.2722L54.0787 25.2739L54.1078 25.2753L54.1368 25.2768L54.1661 25.2779L54.1954 25.2791L54.2244 25.2799L54.2537 25.2805L54.2836 25.2808L54.3129 25.2811L54.3424 25.2814L54.372 25.2811L54.4016 25.2808L54.4315 25.2805L54.4608 25.2799L54.4895 25.2791L54.5188 25.2779L54.5484 25.2768L54.5771 25.2753L54.6064 25.2739L54.6352 25.2722L54.6639 25.2701L54.6926 25.2681L54.7211 25.2658L54.7495 25.2633L54.7782 25.2607L54.8064 25.2578L54.8348 25.2549L54.8632 25.2518L54.8914 25.2483L54.9193 25.2449L54.9471 25.2414L54.9753 25.2374L55.0031 25.2337L55.0307 25.2294L55.0583 25.225L55.0862 25.2205L55.1137 25.2159L55.141 25.211L55.1686 25.2061L55.1956 25.2009L55.2229 25.1957L55.2505 25.19L55.2775 25.1845L55.3045 25.1785L55.3318 25.1728L55.3582 25.1667L55.3852 25.1604L55.4119 25.1538L55.4386 25.1472L55.4651 25.1406L55.4918 25.1334L55.5185 25.1262L55.5449 25.119L55.5711 25.1119L55.5975 25.1041L55.6239 25.0964L55.6498 25.0886L55.6759 25.0806L55.7021 25.0722L55.7279 25.0642L55.7535 25.0556L55.7796 25.0469L55.8055 25.038L55.831 25.0291L55.8569 25.0199L55.8827 25.0105L55.9077 25.0013L55.9333 24.9918L55.9586 24.982L55.9839 24.972L56.0091 24.9619L56.0341 24.9519L56.0597 24.9412L56.0847 24.9309L56.1091 24.9206L56.1341 24.9096L56.1588 24.8987L56.1835 24.8875L56.2082 24.8763L56.2329 24.8648L56.2573 24.8533L56.282 24.8416L56.3065 24.8298L56.3303 24.818L56.3547 24.8056L56.3788 24.7933L56.403 24.7809L56.4268 24.7686L56.4507 24.7557L56.4745 24.7427L56.4984 24.7298L56.5219 24.7166L56.5455 24.7034L56.569 24.6902L56.5926 24.6764L56.6158 24.6626L56.6391 24.6488L56.6624 24.6347L56.6854 24.6206L56.7086 24.6063L56.7316 24.5919L56.7543 24.5776L56.777 24.5629L56.7994 24.548L56.8221 24.533L56.8448 24.5178L56.8672 24.5026L56.8893 24.4874L56.912 24.4716L56.9338 24.456L56.9557 24.4402L56.9781 24.4242L56.9999 24.4084L57.0215 24.3923L57.043 24.3759L57.0648 24.3592L57.0864 24.3426L57.1076 24.3262L57.1289 24.3093L57.1502 24.2923L57.1711 24.2754L57.1921 24.2581L57.2131 24.2406L57.234 24.2231L57.2544 24.2056L57.2751 24.1877L57.2955 24.1699L57.3159 24.1521L57.336 24.134L57.3564 24.1156L57.3765 24.0975L57.3963 24.0789L57.4162 24.0605L57.436 24.0418L57.4555 24.0229L57.4748 24.0042L57.4943 23.9849L57.5135 23.9657L57.5328 23.9467L57.5517 23.9272L57.5707 23.9077L57.5897 23.8878L57.608 23.8683L57.6267 23.8485L57.6451 23.8287L57.6635 23.8086L57.6819 23.7884L57.6997 23.7683L57.7178 23.7479L57.7356 23.7273L57.7534 23.7066L57.7709 23.6859L57.7882 23.6655L57.8057 23.6445L57.8229 23.6233L57.8399 23.6026L57.8568 23.5813L57.8738 23.5598L57.8907 23.5385L57.9071 23.517L57.9235 23.4954L57.9398 23.4739L57.9559 23.4521L57.972 23.4302L57.9881 23.4081L58.0039 23.3863L58.0194 23.3642L58.0349 23.3418L58.0504 23.3193L58.0657 23.2969L58.0806 23.2745L58.0958 23.2518L58.1105 23.2291L58.1251 23.2065L58.1398 23.1838L58.1541 23.1608L58.1685 23.1378L58.1826 23.1145L58.1966 23.0913L58.2104 23.0683L58.2242 23.0447L58.2377 23.0212L58.2512 22.9979L58.2644 22.9741L58.2777 22.9505L58.2906 22.9269L58.3035 22.9028L58.3162 22.8793L58.3288 22.8551L58.3411 22.831L58.3535 22.8069L58.3656 22.7827L58.3776 22.7583L58.3894 22.7342L58.4009 22.7098L58.4127 22.6851L58.4239 22.6607L58.4354 22.6359L58.4463 22.611L58.4572 22.5863L58.4681 22.5615L58.4787 22.5366L58.4891 22.5116L58.4997 22.4866L58.5098 22.4613L58.5198 22.436L58.5296 22.4107L58.5394 22.3855L58.5488 22.3602L58.5583 22.3346L58.5678 22.309L58.5767 22.2835L58.5859 22.2576L58.5945 22.2321L58.6034 22.2062L58.6117 22.1804L58.6201 22.1542L58.6284 22.1281L58.6365 22.1022L58.6442 22.0761L58.652 22.0496L58.6594 22.0235L58.6669 21.9971L58.6741 21.9706L58.6813 21.9442L58.6882 21.9175L58.6951 21.8911L58.7017 21.8644L58.708 21.8374L58.7143 21.8106L58.7206 21.7836L58.7264 21.7566L58.7321 21.7296L58.7379 21.7026L58.7433 21.6753L58.7488 21.6481L58.7539 21.6208L58.7588 21.5935L58.7637 21.5659L58.7683 21.5386L58.7729 21.5107L58.7772 21.4829L58.7812 21.4553L58.7852 21.4274L58.789 21.3996L58.7927 21.3714L58.7962 21.3433L58.7996 21.3154L58.8028 21.2873L58.8056 21.2588L58.8085 21.2304L58.8111 21.2019L58.8134 21.1735L58.8157 21.1448L58.818 21.116L58.8197 21.0873L58.8214 21.0583L58.8232 21.0296L58.8246 21.0006L58.8258 20.9713L58.8266 20.942L58.8275 20.9129L58.8281 20.8834L58.8286 20.8541L58.8289 20.8245V20.7949V20.765L58.8286 20.7354L58.8281 20.7061L58.8275 20.6765L58.8266 20.6475L58.8258 20.6182L58.8246 20.5889L58.8232 20.5599L58.8214 20.5312L58.8197 20.5022L58.818 20.4734L58.8157 20.4447L58.8134 20.416L58.8111 20.3875L58.8085 20.3591L58.8056 20.3307L58.8028 20.3022L58.7996 20.2741L58.7962 20.2459L58.7927 20.2181L58.789 20.1899L58.7852 20.162L58.7812 20.1342L58.7772 20.1066L58.7729 20.0787L58.7683 20.0509L58.7637 20.0236L58.7588 19.996L58.7539 19.9687L58.7488 19.9414L58.7433 19.9141L58.7379 19.8868L58.7321 19.8596L58.7264 19.8328L58.7206 19.8058L58.7143 19.7788L58.708 19.7521L58.7017 19.7251L58.6951 19.6987L58.6882 19.672L58.6813 19.6453L58.6741 19.6188L58.6669 19.5924L58.6594 19.5663L58.652 19.5398L58.6442 19.5134L58.6365 19.4873L58.6284 19.4614L58.6201 19.4353L58.6117 19.4094L58.6034 19.3833L58.5945 19.3574L58.5859 19.3319L58.577 19.306L58.5678 19.2804L58.5583 19.2549L58.5491 19.2293L58.5394 19.204L58.5296 19.1785L58.5198 19.1535L58.5098 19.1282L58.4997 19.1029L58.4891 19.0779L58.4787 19.0529L58.4681 19.0279L58.4572 19.0032L58.4463 18.9782L58.4354 18.9535L58.4239 18.9288L58.4127 18.9044L58.4012 18.88L58.3894 18.8553L58.3776 18.8309L58.3656 18.8067L58.3535 18.7826L58.3411 18.7585L58.3288 18.7343L58.3162 18.7102L58.3035 18.6864L58.2906 18.6625L58.2777 18.639L58.2644 18.6151L58.2512 18.5916L58.2377 18.5683L58.2242 18.5448L58.2104 18.5212L58.1966 18.4982L58.1826 18.4749L58.1685 18.4517L58.1541 18.4287L58.1398 18.4057L58.1251 18.383L58.1105 18.3603L58.0955 18.3376L58.0806 18.3149L58.0657 18.2925L58.0504 18.2701L58.0349 18.2477L58.0194 18.2256L58.0039 18.2032L57.9881 18.1814L57.972 18.1592L57.9559 18.1374L57.9398 18.1156L57.9235 18.094L57.9071 18.0725L57.8904 18.0509L57.8738 18.0297L57.8571 18.0084L57.8399 17.9869L57.8229 17.9659L57.8057 17.9449L57.7885 17.9243L57.7709 17.9036L57.7531 17.8826L57.7356 17.8622L57.7178 17.8415L57.6997 17.8211L57.6819 17.801L57.6635 17.7809L57.6451 17.7608L57.6267 17.741L57.608 17.7212L57.5894 17.7013L57.5707 17.6818L57.5517 17.6623L57.5325 17.6427L57.5135 17.6238L57.4943 17.6045L57.475 17.5856L57.4555 17.5666L57.4357 17.5477L57.4162 17.529L57.3963 17.5106L57.3765 17.4919L57.3564 17.4735L57.336 17.4555L57.3159 17.4374L57.2955 17.4195L57.2751 17.4017L57.2544 17.3839L57.2337 17.3664L57.2131 17.3489L57.1924 17.3316L57.1711 17.3144L57.1502 17.2972L57.1289 17.2802L57.1076 17.2633L57.0864 17.2469L57.0648 17.2302L57.043 17.2136L57.0215 17.1975L56.9999 17.1811L56.9778 17.165L56.956 17.1492L56.9338 17.1334L56.9117 17.1179L56.8896 17.1024L56.8672 17.0869L56.8448 17.0717L56.8224 17.0564L56.7997 17.0415L56.777 17.0266L56.7543 17.0119L56.7316 16.9976L56.7086 16.9832L56.6854 16.9688L56.6624 16.9548L56.6391 16.9407L56.6158 16.9269L56.5926 16.9131L56.569 16.8993L56.5455 16.8861L56.5222 16.8729L56.4984 16.8597L56.4745 16.8467L56.4507 16.8338L56.4268 16.8209L56.4027 16.8085L56.3788 16.7962L56.3547 16.7838L56.3303 16.7718L56.3062 16.7597L56.2818 16.7479L56.2573 16.7361L56.2329 16.7247L56.2082 16.7132L56.1835 16.702L56.1588 16.6908L56.1341 16.6798L56.1091 16.6692L56.0841 16.6586L56.0594 16.648L56.0341 16.6376L56.0091 16.6276L55.9839 16.6175L55.9586 16.6075L55.9333 16.5977L55.9077 16.5882L55.8822 16.5787L55.8566 16.5695L55.831 16.5603L55.8055 16.5514L55.7796 16.5425L55.7538 16.5339L55.7279 16.5253L55.7018 16.517L55.6762 16.5089L55.6501 16.5009L55.6236 16.4931L55.5975 16.4854L55.5711 16.4776L55.5449 16.4704L55.5185 16.463L55.4918 16.4561L55.4654 16.4492L55.4386 16.4423L55.4119 16.4357L55.3852 16.4291L55.3582 16.423L55.3315 16.4167L55.3045 16.4107L55.2775 16.4049L55.2505 16.3995L55.2232 16.394L55.1959 16.3886L55.1686 16.3834L55.141 16.3785L55.1135 16.3736L55.0862 16.369L55.0583 16.3644L55.0307 16.3601L55.0031 16.3558L54.9753 16.3521L54.9474 16.3481L54.9193 16.3446L54.8911 16.3409L54.863 16.3377L54.8348 16.3346L54.8064 16.3317L54.7782 16.3288L54.7498 16.3262L54.7211 16.3236L54.6926 16.3213L54.6636 16.3193L54.6349 16.3173L54.6064 16.3156L54.5771 16.3142L54.5481 16.3127L54.5191 16.3116L54.4898 16.3104L54.4605 16.3096L54.4309 16.309L54.4016 16.3087L54.3723 16.3084L54.3424 16.3081L54.3129 16.3084Z" fill="#F65165"/>
<path fill-rule="evenodd" clip-rule="evenodd" d="M87.8912 11.1686C87.8912 16.67 83.4249 21.1361 77.9238 21.1361C72.4224 21.1361 67.9561 16.67 67.9561 11.1686H73.4379C73.4379 13.6446 75.4479 15.6545 77.9238 15.6545C80.3994 15.6545 82.4097 13.6446 82.4097 11.1686H87.8912Z" fill="#F65165"/>
<path fill-rule="evenodd" clip-rule="evenodd" d="M123.093 27.1554C123.093 25.2495 124.641 23.702 126.547 23.702C128.453 23.702 130 25.2495 130 27.1554C130 29.0614 128.453 30.6089 126.547 30.6089C124.641 30.6089 123.093 29.0614 123.093 27.1554Z" fill="#F65165"/>
<path fill-rule="evenodd" clip-rule="evenodd" d="M32.2196 10.8274L32.2839 10.828L32.3483 10.8292L32.4123 10.8306L32.4764 10.8323L32.5402 10.8346L32.6039 10.8372L32.6677 10.8401L32.7315 10.8435L32.795 10.8475L32.8582 10.8516L32.9216 10.8562L32.9848 10.8613L33.0478 10.8668L33.111 10.8725L33.1736 10.8786L33.2365 10.8852L33.2991 10.8924L33.3615 10.8995L33.4238 10.9073L33.4861 10.9153L33.5485 10.924L33.6105 10.9329L33.6723 10.9421L33.734 10.9518L33.7958 10.9619L33.8573 10.9722L33.9187 10.9831L33.9799 10.994L34.0411 11.0055L34.102 11.0176L34.1629 11.03L34.2235 11.0426L34.2841 11.0555L34.3448 11.0687L34.4051 11.0825L34.4651 11.0966L34.5254 11.1113L34.5852 11.1259L34.6449 11.1411L34.7047 11.1566L34.7642 11.1727L34.8233 11.1891L34.8825 11.2055L34.9417 11.2227L35.0006 11.2399L35.0592 11.2575L35.1178 11.2756L35.1764 11.294L35.2344 11.3126L35.2927 11.3319L35.3507 11.3514L35.4085 11.3709L35.4659 11.391L35.5237 11.4117L35.5808 11.4324L35.638 11.4537L35.6949 11.4749L35.7518 11.4968L35.8084 11.5192L35.8649 11.5416L35.9212 11.5643L35.9776 11.5875L36.0333 11.6111L36.0893 11.6349L36.1447 11.6591L36.2002 11.6835L36.2556 11.7082L36.3108 11.7335L36.3656 11.7587L36.4202 11.7846L36.4748 11.8107L36.5294 11.8372L36.5834 11.8639L36.6374 11.8909L36.6914 11.9185L36.7448 11.946L36.7983 11.9739L36.8517 12.0023L36.9046 12.0311L36.9574 12.0598L37.0103 12.0891L37.0625 12.1187L37.1148 12.1486L37.1671 12.1787L37.2188 12.2092L37.2705 12.2399L37.3219 12.2712L37.3734 12.3025L37.4245 12.3341L37.4753 12.366L37.5259 12.3985L37.5765 12.4309L37.6267 12.464L37.6767 12.497L37.7264 12.5303L37.7761 12.5642L37.8255 12.5981L37.8746 12.6326L37.9238 12.6671L37.9723 12.7021L38.0209 12.7372L38.0691 12.7728L38.1174 12.8084L38.1651 12.8446L38.2127 12.8808L38.2601 12.9173L38.3075 12.9543L38.3544 12.9914L38.4012 13.0287L38.4477 13.0666L38.494 13.1046L38.5399 13.1428L38.5859 13.1813L38.6313 13.22L38.6767 13.2591L38.7218 13.2985L38.7666 13.3378L38.8114 13.3778L38.8556 13.418L38.8999 13.4582L38.9438 13.499L38.9872 13.5398L39.0309 13.5809L39.074 13.6222L39.1168 13.6639L39.1596 13.7058L39.2018 13.748L39.244 13.7906L39.286 13.8331L39.3276 13.8759L39.369 13.9192L39.4101 13.9626L39.4511 14.0063L39.4916 14.0502L39.5321 14.0942L39.5721 14.1387L39.612 14.1832L39.6516 14.2281L39.6907 14.2732L39.7298 14.3185L39.7686 14.3642L39.8071 14.4099L39.8455 14.4559L39.8835 14.5024L39.9211 14.5486L39.9584 14.5955L39.9955 14.6426L40.0326 14.6897L40.069 14.7371L40.1055 14.7848L40.1414 14.8325L40.177 14.8807L40.2127 14.929L40.2477 14.9775L40.2828 15.0264L40.3172 15.0752L40.3517 15.1243L40.3856 15.1737L40.4195 15.2234L40.4528 15.2731L40.4861 15.3234L40.5189 15.3734L40.5514 15.4239L40.5838 15.4745L40.6157 15.5256L40.6473 15.5765L40.6789 15.6279L40.7099 15.6793L40.7407 15.731L40.7711 15.783L40.8013 15.835L40.8311 15.8873L40.8607 15.9399L40.89 15.9924L40.919 16.0453L40.9475 16.0984L40.9759 16.1516L41.0038 16.205L41.0317 16.2587L41.0589 16.3124L41.0859 16.3664L41.1127 16.4207L41.1391 16.475L41.1652 16.5296L41.1911 16.5842L41.2164 16.6393L41.2416 16.6942L41.2663 16.7496L41.2911 16.8051L41.3152 16.8605L41.339 16.9165L41.3623 16.9726L41.3856 17.0286L41.4083 17.0849L41.431 17.1415L41.4531 17.1981L41.4749 17.2549L41.4964 17.3118L41.5174 17.369L41.5384 17.4264L41.5588 17.4839L41.5789 17.5413L41.5987 17.5994L41.618 17.6571L41.6372 17.7154L41.6559 17.7737L41.6743 17.8321L41.6924 17.8907L41.7099 17.9493L41.7274 18.0081L41.7444 18.0673L41.761 18.1265L41.7771 18.186L41.7932 18.2454L41.8087 18.3049L41.8239 18.3646L41.8386 18.4247L41.8532 18.4847L41.8673 18.5448L41.8811 18.6051L41.8943 18.6657L41.9075 18.7263L41.9202 18.7869L41.9322 18.8478L41.9443 18.909L41.9558 18.9699L41.967 19.0314L41.9776 19.0926L41.988 19.1543L41.998 19.2158L42.0078 19.2776L42.017 19.3396L42.0259 19.4017L42.0345 19.4637L42.0425 19.526L42.0503 19.5884L42.0578 19.651L42.0647 19.7136L42.0713 19.7762L42.0773 19.8392L42.0833 19.9021L42.0885 19.965L42.0937 20.0282L42.0983 20.0917L42.1026 20.1549L42.1063 20.2186L42.1098 20.2821L42.1126 20.3459L42.1155 20.4097L42.1175 20.4737L42.1195 20.5378L42.121 20.6018L42.1218 20.6659L42.1224 20.7302L42.1227 20.7946L42.1224 20.8592L42.1218 20.9236L42.121 20.9876L42.1195 21.0517L42.1175 21.1158L42.1155 21.1798L42.1126 21.2436L42.1098 21.3074L42.1063 21.3708L42.1026 21.4343L42.0983 21.4978L42.0937 21.5613L42.0885 21.6245L42.0833 21.6874L42.0773 21.7503L42.0713 21.8132L42.0647 21.8759L42.0578 21.9385L42.0503 22.0011L42.0425 22.0634L42.0345 22.1258L42.0259 22.1878L42.017 22.2499L42.0078 22.3119L41.998 22.3737L41.988 22.4352L41.9776 22.4969L41.967 22.5581L41.9558 22.6196L41.9443 22.6805L41.9322 22.7417L41.9202 22.8026L41.9075 22.8632L41.8943 22.9238L41.8811 22.9844L41.8673 23.0447L41.8532 23.1048L41.8386 23.1648L41.8239 23.2248L41.8087 23.2846L41.7932 23.3441L41.7771 23.4035L41.761 23.463L41.7444 23.5222L41.7274 23.5813L41.7099 23.6402L41.6924 23.6988L41.6743 23.7574L41.6559 23.8157L41.6372 23.8741L41.618 23.9324L41.5987 23.9901L41.5789 24.0481L41.5588 24.1056L41.5384 24.163L41.5174 24.2205L41.4964 24.2777L41.4749 24.3345L41.4531 24.3914L41.431 24.448L41.4083 24.5046L41.3856 24.5609L41.3623 24.6169L41.339 24.6729L41.3152 24.7289L41.2911 24.7844L41.2663 24.8398L41.2416 24.8953L41.2164 24.9501L41.1911 25.0053L41.1652 25.0599L41.1391 25.1145L41.1127 25.1687L41.0859 25.223L41.0589 25.277L41.0317 25.3308L41.0038 25.3845L40.9759 25.4379L40.9475 25.4911L40.919 25.5442L40.89 25.5971L40.8607 25.6496L40.8311 25.7022L40.8013 25.7545L40.7711 25.8065L40.7407 25.8585L40.7099 25.9102L40.6789 25.9616L40.6473 26.013L40.6157 26.0639L40.5838 26.115L40.5514 26.1655L40.5189 26.2161L40.4861 26.2661L40.4528 26.3164L40.4195 26.3661L40.3856 26.4158L40.3517 26.4652L40.3172 26.5143L40.2828 26.5631L40.2477 26.612L40.2127 26.6605L40.177 26.7088L40.1414 26.757L40.1055 26.8047L40.069 26.8524L40.0326 26.8998L39.9955 26.9469L39.9584 26.994L39.9211 27.0408L39.8835 27.0871L39.8455 27.1336L39.8071 27.1796L39.7686 27.2253L39.7298 27.2709L39.6907 27.3163L39.6516 27.3614L39.612 27.4062L39.5721 27.4508L39.5321 27.4953L39.4916 27.5392L39.4511 27.5832L39.4101 27.6269L39.369 27.6702L39.3276 27.7136L39.286 27.7564L39.244 27.7989L39.2018 27.8414L39.1596 27.8837L39.1168 27.9256L39.074 27.9673L39.0309 28.0086L38.9872 28.0497L38.9438 28.0905L38.8999 28.1313L38.8556 28.1715L38.8114 28.2117L38.7666 28.2516L38.7218 28.291L38.6767 28.3304L38.6313 28.3694L38.5859 28.4082L38.5399 28.4467L38.494 28.4849L38.4477 28.5228L38.4012 28.5607L38.3544 28.5981L38.3075 28.6351L38.2601 28.6722L38.2127 28.7087L38.1651 28.7449L38.1174 28.7811L38.0691 28.8167L38.0209 28.8523L37.9723 28.8874L37.9238 28.9224L37.8746 28.9569L37.8255 28.9914L37.7761 29.0252L37.7264 29.0591L37.6767 29.0925L37.6267 29.1255L37.5765 29.1585L37.5259 29.191L37.4753 29.2235L37.4245 29.2553L37.3734 29.2869L37.3219 29.3183L37.2705 29.3496L37.2188 29.3803L37.1671 29.4108L37.1148 29.4409L37.0625 29.4708L37.0103 29.5004L36.9574 29.5297L36.9046 29.5584L36.8517 29.5871L36.7983 29.6156L36.7448 29.6434L36.6914 29.671L36.6374 29.6986L36.5834 29.7256L36.5294 29.7523L36.4748 29.7787L36.4202 29.8049L36.3656 29.8307L36.3108 29.856L36.2556 29.8813L36.2002 29.906L36.1447 29.9304L36.0893 29.9545L36.0333 29.9784L35.9776 30.0019L35.9212 30.0252L35.8649 30.0479L35.8084 30.0703L35.7518 30.0927L35.6949 30.1145L35.638 30.1358L35.5808 30.1571L35.5237 30.1777L35.4659 30.1984L35.4085 30.2185L35.3507 30.2381L35.2927 30.2576L35.2344 30.2769L35.1764 30.2955L35.1178 30.3139L35.0592 30.332L35.0006 30.3495L34.9417 30.3668L34.8825 30.384L34.8233 30.4004L34.7642 30.4167L34.7047 30.4328L34.6449 30.4483L34.5852 30.4636L34.5254 30.4782L34.4651 30.4929L34.4051 30.507L34.3448 30.5207L34.2841 30.534L34.2235 30.5469L34.1629 30.5595L34.102 30.5719L34.0411 30.5839L33.9799 30.5954L33.9187 30.6063L33.8573 30.6173L33.7958 30.6276L33.734 30.6377L33.6723 30.6474L33.6105 30.6566L33.5485 30.6655L33.4861 30.6741L33.4238 30.6822L33.3615 30.6899L33.2991 30.6971L33.2365 30.7043L33.1736 30.7109L33.111 30.7169L33.0478 30.7227L32.9848 30.7281L32.9216 30.7333L32.8582 30.7379L32.795 30.7419L32.7315 30.746L32.6677 30.7494L32.6039 30.7523L32.5402 30.7549L32.4764 30.7572L32.4123 30.7589L32.3483 30.7603L32.2839 30.7615L32.2196 30.762L32.1552 30.7623L32.0906 30.762L32.0265 30.7615L31.9622 30.7603L31.8981 30.7589L31.8341 30.7572L31.77 30.7549L31.7062 30.7523L31.6425 30.7494L31.579 30.746L31.5155 30.7419L31.452 30.7379L31.3888 30.7333L31.3256 30.7281L31.2624 30.7227L31.1995 30.7169L31.1366 30.7109L31.074 30.7043L31.0114 30.6971L30.9487 30.6899L30.8864 30.6822L30.8241 30.6741L30.762 30.6655L30.7 30.6566L30.6379 30.6474L30.5762 30.6377L30.5147 30.6276L30.4532 30.6173L30.3917 30.6063L30.3305 30.5954L30.2694 30.5839L30.2082 30.5719L30.1476 30.5595L30.0867 30.5469L30.026 30.534L29.9657 30.5207L29.9054 30.507L29.8451 30.4929L29.785 30.4782L29.725 30.4636L29.6652 30.4483L29.6058 30.4328L29.5463 30.4167L29.4869 30.4004L29.4277 30.384L29.3688 30.3668L29.3099 30.3495L29.251 30.332L29.1924 30.3139L29.1341 30.2955L29.0758 30.2769L29.0177 30.2576L28.9597 30.2381L28.902 30.2185L28.8442 30.1984L28.7868 30.1777L28.7293 30.1571L28.6722 30.1358L28.6153 30.1145L28.5584 30.0927L28.5018 30.0703L28.4452 30.0479L28.3889 30.0252L28.3329 30.0019L28.2769 29.9784L28.2212 29.9545L28.1654 29.9304L28.11 29.906L28.0548 29.8813L27.9997 29.856L27.9448 29.8307L27.89 29.8049L27.8354 29.7787L27.7811 29.7523L27.7268 29.7256L27.6728 29.6986L27.6191 29.671L27.5653 29.6434L27.5119 29.6156L27.4588 29.5871L27.4056 29.5584L27.3528 29.5297L27.3002 29.5004L27.2476 29.4708L27.1954 29.4409L27.1434 29.4108L27.0914 29.3803L27.0397 29.3496L26.9882 29.3183L26.9371 29.2869L26.886 29.2553L26.8351 29.2235L26.7843 29.191L26.734 29.1585L26.6837 29.1255L26.6338 29.0925L26.5838 29.0591L26.5344 29.0252L26.485 28.9914L26.4355 28.9569L26.3867 28.9224L26.3379 28.8874L26.2893 28.8523L26.2411 28.8167L26.1931 28.7811L26.1451 28.7449L26.0974 28.7087L26.05 28.6722L26.0029 28.6351L25.9558 28.5981L25.9093 28.5607L25.8627 28.5228L25.8165 28.4849L25.7702 28.4467L25.7246 28.4082L25.6789 28.3694L25.6335 28.3304L25.5884 28.291L25.5436 28.2516L25.4991 28.2117L25.4545 28.1715L25.4106 28.1313L25.3666 28.0905L25.323 28.0497L25.2796 28.0086L25.2365 27.9673L25.1934 27.9256L25.1509 27.8837L25.1084 27.8414L25.0662 27.7989L25.0242 27.7564L24.9826 27.7136L24.9412 27.6702L24.9001 27.6269L24.8593 27.5832L24.8185 27.5392L24.7783 27.4953L24.7381 27.4508L24.6985 27.4062L24.6588 27.3614L24.6195 27.3163L24.5804 27.2709L24.5416 27.2253L24.5031 27.1796L24.4649 27.1336L24.427 27.0871L24.3894 27.0408L24.3517 26.994L24.3147 26.9469L24.2779 26.8998L24.2411 26.8524L24.2049 26.8047L24.169 26.757L24.1331 26.7088L24.0978 26.6605L24.0625 26.612L24.0277 26.5631L23.9929 26.5143L23.9588 26.4652L23.9246 26.4158L23.891 26.3661L23.8574 26.3164L23.8243 26.2661L23.7913 26.2161L23.7588 26.1655L23.7267 26.115L23.6945 26.0639L23.6629 26.013L23.6316 25.9616L23.6005 25.9102L23.5695 25.8585L23.5391 25.8065L23.5089 25.7545L23.479 25.7022L23.4494 25.6496L23.4204 25.5971L23.3914 25.5442L23.3627 25.4911L23.3345 25.4379L23.3064 25.3845L23.2788 25.3308L23.2512 25.277L23.2242 25.223L23.1975 25.1687L23.1711 25.1145L23.1449 25.0599L23.1194 25.0053L23.0938 24.9501L23.0688 24.8953L23.0438 24.8398L23.0194 24.7844L22.9953 24.7289L22.9714 24.6729L22.9479 24.6169L22.9249 24.5609L22.9019 24.5046L22.8795 24.448L22.8574 24.3914L22.8356 24.3345L22.814 24.2777L22.7928 24.2205L22.7721 24.163L22.7517 24.1056L22.7316 24.0481L22.7118 23.9901L22.6922 23.9324L22.6733 23.8741L22.6543 23.8157L22.6359 23.7574L22.6181 23.6988L22.6003 23.6402L22.5831 23.5813L22.5661 23.5222L22.5495 23.463L22.5331 23.4035L22.5173 23.3441L22.5018 23.2846L22.4865 23.2248L22.4716 23.1648L22.4572 23.1048L22.4432 23.0447L22.4294 22.9844L22.4159 22.9238L22.4029 22.8632L22.3903 22.8026L22.378 22.7417L22.3662 22.6805L22.3547 22.6196L22.3435 22.5581L22.3326 22.4969L22.3222 22.4352L22.3122 22.3737L22.3027 22.3119L22.2932 22.2499L22.2843 22.1878L22.276 22.1258L22.2676 22.0634L22.2599 22.0011L22.2527 21.9385L22.2458 21.8759L22.2392 21.8132L22.2329 21.7503L22.2271 21.6874L22.2217 21.6245L22.2168 21.5613L22.2122 21.4978L22.2079 21.4343L22.2042 21.3708L22.2007 21.3074L22.1976 21.2436L22.195 21.1798L22.1927 21.1158L22.1909 21.0517L22.1895 20.9876L22.1884 20.9236L22.1878 20.8592L22.1875 20.7946L22.1878 20.7302L22.1884 20.6659L22.1895 20.6018L22.1909 20.5378L22.1927 20.4737L22.195 20.4097L22.1976 20.3459L22.2007 20.2821L22.2042 20.2186L22.2079 20.1549L22.2122 20.0917L22.2168 20.0282L22.2217 19.965L22.2271 19.9021L22.2329 19.8392L22.2392 19.7762L22.2458 19.7136L22.2527 19.651L22.2599 19.5884L22.2676 19.526L22.276 19.4637L22.2843 19.4017L22.2932 19.3396L22.3027 19.2776L22.3122 19.2158L22.3222 19.1543L22.3326 19.0926L22.3435 19.0314L22.3547 18.9699L22.3662 18.909L22.378 18.8478L22.3903 18.7869L22.4029 18.7263L22.4159 18.6657L22.4294 18.6051L22.4432 18.5448L22.4572 18.4847L22.4716 18.4247L22.4865 18.3646L22.5018 18.3049L22.5173 18.2454L22.5331 18.186L22.5495 18.1265L22.5661 18.0673L22.5831 18.0081L22.6003 17.9493L22.6181 17.8907L22.6359 17.8321L22.6543 17.7737L22.6733 17.7154L22.6922 17.6571L22.7118 17.5994L22.7316 17.5413L22.7517 17.4839L22.7721 17.4264L22.7928 17.369L22.814 17.3118L22.8356 17.2549L22.8574 17.1981L22.8795 17.1415L22.9019 17.0849L22.9249 17.0286L22.9479 16.9726L22.9714 16.9165L22.9953 16.8605L23.0194 16.8051L23.0438 16.7496L23.0688 16.6942L23.0938 16.6393L23.1194 16.5842L23.1449 16.5296L23.1711 16.475L23.1975 16.4207L23.2242 16.3664L23.2512 16.3124L23.2788 16.2587L23.3064 16.205L23.3345 16.1516L23.3627 16.0984L23.3914 16.0453L23.4204 15.9924L23.4494 15.9399L23.479 15.8873L23.5089 15.835L23.5391 15.783L23.5695 15.731L23.6005 15.6793L23.6316 15.6279L23.6629 15.5765L23.6945 15.5256L23.7267 15.4745L23.7588 15.4239L23.7913 15.3734L23.8243 15.3234L23.8574 15.2731L23.891 15.2234L23.9246 15.1737L23.9588 15.1243L23.9929 15.0752L24.0277 15.0264L24.0625 14.9775L24.0978 14.929L24.1331 14.8807L24.169 14.8325L24.2049 14.7848L24.2411 14.7371L24.2779 14.6897L24.3147 14.6426L24.3517 14.5955L24.3894 14.5486L24.427 14.5024L24.4649 14.4559L24.5031 14.4099L24.5416 14.3642L24.5804 14.3185L24.6195 14.2732L24.6588 14.2281L24.6985 14.1832L24.7381 14.1387L24.7783 14.0942L24.8185 14.0502L24.8593 14.0063L24.9001 13.9626L24.9412 13.9192L24.9826 13.8759L25.0242 13.8331L25.0662 13.7906L25.1084 13.748L25.1509 13.7058L25.1934 13.6639L25.2365 13.6222L25.2796 13.5809L25.323 13.5398L25.3666 13.499L25.4106 13.4582L25.4545 13.418L25.4991 13.3778L25.5436 13.3378L25.5884 13.2985L25.6335 13.2591L25.6789 13.22L25.7246 13.1813L25.7702 13.1428L25.8165 13.1046L25.8627 13.0666L25.9093 13.0287L25.9558 12.9914L26.0029 12.9543L26.05 12.9173L26.0974 12.8808L26.1451 12.8446L26.1931 12.8084L26.2411 12.7728L26.2893 12.7372L26.3379 12.7021L26.3867 12.6671L26.4355 12.6326L26.485 12.5981L26.5344 12.5642L26.5838 12.5303L26.6338 12.497L26.6837 12.464L26.734 12.4309L26.7843 12.3985L26.8351 12.366L26.886 12.3341L26.9371 12.3025L26.9882 12.2712L27.0397 12.2399L27.0914 12.2092L27.1434 12.1787L27.1954 12.1486L27.2476 12.1187L27.3002 12.0891L27.3528 12.0598L27.4056 12.0311L27.4588 12.0023L27.5119 11.9739L27.5653 11.946L27.6191 11.9185L27.6728 11.8909L27.7268 11.8639L27.7811 11.8372L27.8354 11.8107L27.89 11.7846L27.9448 11.7587L27.9997 11.7335L28.0548 11.7082L28.11 11.6835L28.1654 11.6591L28.2212 11.6349L28.2769 11.6111L28.3329 11.5875L28.3889 11.5643L28.4452 11.5416L28.5018 11.5192L28.5584 11.4968L28.6153 11.4749L28.6722 11.4537L28.7293 11.4324L28.7868 11.4117L28.8442 11.391L28.902 11.3709L28.9597 11.3514L29.0177 11.3319L29.0758 11.3126L29.1341 11.294L29.1924 11.2756L29.251 11.2575L29.3099 11.2399L29.3688 11.2227L29.4277 11.2055L29.4869 11.1891L29.5463 11.1727L29.6058 11.1566L29.6652 11.1411L29.725 11.1259L29.785 11.1113L29.8451 11.0966L29.9054 11.0825L29.9657 11.0687L30.026 11.0555L30.0867 11.0426L30.1476 11.03L30.2082 11.0176L30.2694 11.0055L30.3305 10.994L30.3917 10.9831L30.4532 10.9722L30.5147 10.9619L30.5762 10.9518L30.6379 10.9421L30.7 10.9329L30.762 10.924L30.8241 10.9153L30.8864 10.9073L30.9487 10.8995L31.0114 10.8924L31.074 10.8852L31.1366 10.8786L31.1995 10.8725L31.2624 10.8668L31.3256 10.8613L31.3888 10.8562L31.452 10.8516L31.5155 10.8475L31.579 10.8435L31.6425 10.8401L31.7062 10.8372L31.77 10.8346L31.8341 10.8323L31.8981 10.8306L31.9622 10.8292L32.0265 10.828L32.0906 10.8274L32.1552 10.8271L32.2196 10.8274ZM32.1254 16.3084L32.0961 16.3087L32.0665 16.309L32.0372 16.3096L32.0079 16.3104L31.9786 16.3116L31.9496 16.3127L31.9205 16.3142L31.8912 16.3156L31.8625 16.3173L31.8341 16.3193L31.8051 16.3213L31.7763 16.3236L31.7479 16.3262L31.7195 16.3288L31.691 16.3317L31.6629 16.3346L31.6347 16.3377L31.6066 16.3409L31.5784 16.3446L31.5503 16.3481L31.5224 16.3521L31.4945 16.3558L31.467 16.3601L31.4391 16.3644L31.4115 16.369L31.3842 16.3736L31.3566 16.3785L31.3291 16.3834L31.3018 16.3886L31.2745 16.394L31.2472 16.3995L31.2202 16.4049L31.1932 16.4107L31.1662 16.4167L31.1392 16.423L31.1125 16.4291L31.0858 16.4357L31.059 16.4423L31.0323 16.4492L31.0059 16.4561L30.9792 16.463L30.9528 16.4704L30.9266 16.4776L30.9002 16.4854L30.874 16.4931L30.8476 16.5009L30.8215 16.5089L30.7959 16.517L30.7698 16.5256L30.7436 16.5339L30.7181 16.5425L30.6922 16.5514L30.6666 16.5603L30.6408 16.5695L30.6152 16.5787L30.5899 16.5882L30.5644 16.5977L30.5391 16.6075L30.5135 16.6175L30.4885 16.6276L30.4635 16.6376L30.4383 16.648L30.4136 16.6586L30.3883 16.6692L30.3633 16.6798L30.3389 16.6908L30.3139 16.702L30.2895 16.7132L30.2648 16.7247L30.2403 16.7361L30.2159 16.7479L30.1915 16.7597L30.1671 16.7718L30.143 16.7838L30.1188 16.7962L30.095 16.8085L30.0709 16.8209L30.047 16.8338L30.0232 16.8467L29.9993 16.8597L29.9755 16.8729L29.9519 16.8861L29.9287 16.8996L29.9051 16.9131L29.8818 16.9269L29.8586 16.9407L29.8353 16.9548L29.8123 16.9688L29.789 16.9832L29.7661 16.9976L29.7434 17.0119L29.7207 17.0266L29.698 17.0415L29.6753 17.0564L29.6529 17.0717L29.6305 17.0869L29.6081 17.1021L29.586 17.1179L29.5638 17.1334L29.5417 17.1492L29.5199 17.165L29.4978 17.1811L29.4762 17.1975L29.4547 17.2136L29.4328 17.2302L29.4113 17.2469L29.39 17.2633L29.3688 17.2802L29.3475 17.2972L29.3266 17.3144L29.3053 17.3316L29.2846 17.3489L29.2639 17.3664L29.243 17.3839L29.2226 17.4017L29.2022 17.4195L29.1818 17.4374L29.1614 17.4555L29.1416 17.4735L29.1212 17.4919L29.1013 17.5106L29.0815 17.529L29.0617 17.5477L29.0422 17.5666L29.0226 17.5856L29.0034 17.6045L28.9841 17.6238L28.9649 17.6427L28.9459 17.6623L28.927 17.6818L28.9083 17.7013L28.8896 17.7212L28.871 17.741L28.8526 17.7608L28.8342 17.7809L28.8161 17.801L28.798 17.8211L28.7799 17.8418L28.7621 17.8622L28.7443 17.8826L28.7268 17.9033L28.7092 17.9243L28.692 17.9449L28.6748 17.9659L28.6578 17.9872L28.6406 18.0084L28.6239 18.0297L28.6073 18.0509L28.5906 18.0725L28.5742 18.094L28.5578 18.1156L28.5415 18.1374L28.5257 18.1592L28.5096 18.1814L28.4938 18.2032L28.4783 18.2256L28.4628 18.2477L28.4472 18.2701L28.432 18.2925L28.4171 18.3149L28.4019 18.3376L28.3872 18.3603L28.3726 18.383L28.3579 18.406L28.3435 18.4287L28.3292 18.4517L28.3151 18.4749L28.301 18.4979L28.2872 18.5215L28.2734 18.5448L28.2599 18.568L28.2464 18.5916L28.2332 18.6151L28.22 18.639L28.2071 18.6625L28.1942 18.6864L28.1815 18.7105L28.1689 18.7343L28.1565 18.7585L28.1442 18.7826L28.1321 18.8067L28.1201 18.8309L28.1083 18.8556L28.0965 18.88L28.085 18.9044L28.0735 18.9288L28.0623 18.9535L28.0514 18.9782L28.0405 19.0032L28.0296 19.0279L28.0189 19.0529L28.0083 19.0779L27.998 19.1029L27.9879 19.1282L27.9779 19.1532L27.9681 19.1787L27.9583 19.204L27.9486 19.2293L27.9394 19.2549L27.9299 19.2804L27.9207 19.306L27.9118 19.3319L27.9029 19.3574L27.8943 19.3833L27.8859 19.4094L27.8776 19.4353L27.8693 19.4611L27.8612 19.4873L27.8535 19.5134L27.8457 19.5398L27.8382 19.566L27.8308 19.5924L27.8236 19.6188L27.8164 19.6453L27.8095 19.672L27.8026 19.6987L27.796 19.7254L27.7897 19.7518L27.7834 19.7788L27.7771 19.8058L27.7713 19.8328L27.7653 19.8598L27.7598 19.8868L27.7544 19.9141L27.7489 19.9414L27.7437 19.9687L27.7389 19.996L27.734 20.0236L27.7294 20.0512L27.7248 20.0787L27.7205 20.1063L27.7164 20.1342L27.7124 20.162L27.7087 20.1899L27.705 20.2181L27.7015 20.2459L27.6981 20.2741L27.6949 20.3025L27.692 20.3307L27.6892 20.3591L27.6866 20.3875L27.6843 20.416L27.682 20.4447L27.6797 20.4734L27.678 20.5022L27.6762 20.5309L27.6745 20.5599L27.6731 20.5892L27.6719 20.6182L27.6711 20.6472L27.6702 20.6765L27.6693 20.7061L27.6691 20.7354L27.6688 20.765V20.7949V20.8245L27.6691 20.8541L27.6693 20.8834L27.6702 20.9129L27.6711 20.9422L27.6719 20.9713L27.6731 21.0003L27.6745 21.0296L27.6762 21.0586L27.678 21.0873L27.6797 21.116L27.682 21.1448L27.6843 21.1735L27.6866 21.2019L27.6892 21.2304L27.692 21.2588L27.6949 21.287L27.6981 21.3154L27.7015 21.3433L27.705 21.3714L27.7087 21.3996L27.7124 21.4274L27.7164 21.4553L27.7205 21.4832L27.7248 21.5107L27.7294 21.5383L27.734 21.5659L27.7389 21.5935L27.7437 21.6208L27.7489 21.6481L27.7544 21.6753L27.7598 21.7026L27.7653 21.7296L27.7713 21.7569L27.7771 21.7836L27.7834 21.8106L27.7897 21.8374L27.796 21.8641L27.8026 21.8908L27.8095 21.9175L27.8164 21.9442L27.8236 21.9706L27.8308 21.9971L27.8382 22.0235L27.8457 22.0496L27.8535 22.0758L27.8612 22.1022L27.8693 22.1284L27.8776 22.1542L27.8859 22.1804L27.8943 22.2062L27.9029 22.2321L27.9118 22.2576L27.9207 22.2835L27.9299 22.309L27.9391 22.3346L27.9486 22.3602L27.9583 22.3855L27.9678 22.4107L27.9779 22.4363L27.9879 22.4613L27.998 22.4866L28.0083 22.5116L28.0189 22.5366L28.0296 22.5615L28.0405 22.5865L28.0511 22.611L28.0623 22.6359L28.0735 22.6607L28.085 22.6851L28.0965 22.7098L28.1083 22.7339L28.1201 22.7583L28.1321 22.7827L28.1442 22.8069L28.1565 22.831L28.1689 22.8551L28.1815 22.8793L28.1942 22.9028L28.2071 22.9269L28.22 22.9505L28.2332 22.9741L28.2464 22.9979L28.2599 23.0215L28.2734 23.0447L28.2872 23.0683L28.301 23.0913L28.3151 23.1145L28.3292 23.1378L28.3435 23.1608L28.3579 23.1838L28.3726 23.2065L28.3872 23.2291L28.4019 23.2518L28.4171 23.2745L28.432 23.2969L28.4472 23.3193L28.4628 23.3418L28.4783 23.3642L28.4938 23.3863L28.5096 23.4081L28.5257 23.4302L28.5415 23.4521L28.5578 23.4739L28.5742 23.4954L28.5906 23.517L28.607 23.5385L28.6239 23.5598L28.6409 23.5813L28.6578 23.6023L28.6748 23.6233L28.692 23.6445L28.7095 23.6655L28.7268 23.6862L28.7443 23.7066L28.7621 23.7273L28.7799 23.7477L28.798 23.7683L28.8161 23.7884L28.8342 23.8086L28.8526 23.8287L28.871 23.8485L28.8896 23.8683L28.908 23.8878L28.927 23.9077L28.9459 23.9272L28.9649 23.9464L28.9839 23.9657L29.0034 23.9849L29.0226 24.0042L29.0422 24.0229L29.0617 24.0415L29.0815 24.0605L29.1013 24.0789L29.1212 24.0975L29.1413 24.1156L29.1614 24.134L29.1818 24.1521L29.2022 24.1699L29.2226 24.1877L29.243 24.2056L29.2636 24.2231L29.2846 24.2406L29.3056 24.2581L29.3266 24.2754L29.3475 24.2923L29.3688 24.3093L29.39 24.3262L29.4113 24.3426L29.4328 24.3592L29.4547 24.3759L29.4762 24.3923L29.4978 24.4084L29.5196 24.4242L29.5417 24.4402L29.5638 24.456L29.5857 24.4716L29.6084 24.4874L29.6305 24.5026L29.6526 24.5178L29.6756 24.533L29.698 24.548L29.7207 24.5629L29.7434 24.5776L29.7661 24.5919L29.789 24.6063L29.8123 24.6206L29.8353 24.6347L29.8586 24.6488L29.8818 24.6626L29.9051 24.6764L29.9287 24.6899L29.9519 24.7034L29.9758 24.7166L29.9993 24.7298L30.0232 24.7427L30.047 24.7557L30.0709 24.7686L30.0947 24.7809L30.1188 24.7933L30.143 24.8056L30.1674 24.818L30.1912 24.8298L30.2156 24.8416L30.2403 24.8533L30.2648 24.8648L30.2895 24.8763L30.3142 24.8875L30.3389 24.8987L30.3636 24.9096L30.3886 24.9206L30.4133 24.9309L30.438 24.9415L30.4635 24.9519L30.4885 24.9619L30.5138 24.972L30.5391 24.982L30.5644 24.9918L30.5899 25.0013L30.6149 25.0105L30.6408 25.0199L30.6666 25.0291L30.6922 25.038L30.7181 25.0469L30.7442 25.0556L30.7698 25.0639L30.7953 25.0722L30.8218 25.0806L30.8479 25.0886L30.8738 25.0964L30.9002 25.1041L30.9266 25.1119L30.9528 25.119L30.9789 25.1262L31.0059 25.1334L31.0326 25.1406L31.059 25.1472L31.0858 25.1538L31.1125 25.1604L31.1395 25.1667L31.1659 25.1728L31.1932 25.1785L31.2202 25.1845L31.2472 25.19L31.2748 25.1957L31.3018 25.2009L31.3291 25.2061L31.3566 25.211L31.3839 25.2159L31.4115 25.2205L31.4391 25.225L31.467 25.2294L31.4945 25.2337L31.5224 25.2374L31.5505 25.2414L31.5784 25.2449L31.6063 25.2483L31.6344 25.2518L31.6629 25.2549L31.691 25.2578L31.7195 25.2607L31.7482 25.2633L31.7766 25.2658L31.8051 25.2681L31.8338 25.2701L31.8625 25.2722L31.8912 25.2739L31.9205 25.2753L31.9493 25.2768L31.9789 25.2779L32.0082 25.2791L32.0369 25.2799L32.0662 25.2805L32.0961 25.2808L32.1256 25.2811L32.1552 25.2814L32.1848 25.2811L32.2141 25.2808L32.244 25.2805L32.2733 25.2799L32.3023 25.2791L32.3316 25.2779L32.3609 25.2768L32.3899 25.2753L32.4189 25.2739L32.448 25.2722L32.4767 25.2701L32.5054 25.2681L32.5336 25.2658L32.5623 25.2633L32.5907 25.2607L32.6192 25.2578L32.6473 25.2549L32.6758 25.2518L32.7039 25.2483L32.7321 25.2449L32.7599 25.2414L32.7878 25.2374L32.8157 25.2337L32.8432 25.2294L32.8711 25.225L32.8987 25.2205L32.9265 25.2159L32.9538 25.211L32.9811 25.2061L33.0084 25.2009L33.0354 25.1957L33.063 25.19L33.09 25.1845L33.1173 25.1785L33.1443 25.1728L33.1707 25.1667L33.198 25.1604L33.2247 25.1538L33.2514 25.1472L33.2779 25.1406L33.3046 25.1334L33.3313 25.1262L33.3577 25.119L33.3839 25.1119L33.41 25.1041L33.4364 25.0964L33.4626 25.0886L33.4887 25.0806L33.5148 25.0722L33.5407 25.0642L33.5663 25.0556L33.5924 25.0469L33.6183 25.038L33.6438 25.0291L33.6697 25.0199L33.6952 25.0108L33.7205 25.0013L33.7458 24.9918L33.7711 24.982L33.7964 24.972L33.8216 24.9619L33.8466 24.9519L33.8722 24.9415L33.8972 24.9309L33.9219 24.9203L33.9466 24.9096L33.9716 24.8987L33.9963 24.8875L34.021 24.8763L34.0457 24.8648L34.0701 24.8533L34.0945 24.8416L34.119 24.8298L34.1431 24.818L34.1672 24.8056L34.1916 24.7933L34.2155 24.7809L34.2393 24.7686L34.2635 24.7557L34.2873 24.7427L34.3109 24.7298L34.3347 24.7166L34.3583 24.7034L34.3815 24.6902L34.4054 24.6764L34.4286 24.6626L34.4519 24.6488L34.4752 24.6347L34.4979 24.6206L34.5211 24.6063L34.5441 24.5919L34.5668 24.5776L34.5898 24.5626L34.6122 24.548L34.6349 24.533L34.6576 24.5178L34.68 24.5026L34.7021 24.4874L34.7245 24.4716L34.7466 24.456L34.7685 24.4402L34.7906 24.4242L34.8124 24.4084L34.834 24.3923L34.8558 24.3759L34.8776 24.3592L34.8992 24.3426L34.9204 24.3259L34.9417 24.3093L34.9629 24.2923L34.9836 24.2754L35.0046 24.2581L35.0256 24.2406L35.0465 24.2231L35.0672 24.2056L35.0879 24.1877L35.1083 24.1699L35.1287 24.1521L35.1488 24.134L35.1689 24.1156L35.189 24.0975L35.2088 24.0789L35.2289 24.0605L35.2485 24.0418L35.268 24.0229L35.2875 24.0042L35.3071 23.9849L35.3263 23.9657L35.3453 23.9467L35.3642 23.9272L35.3835 23.9077L35.4022 23.8878L35.4208 23.8683L35.4392 23.8485L35.4579 23.8287L35.4763 23.8086L35.4944 23.7884L35.5125 23.7683L35.5303 23.7479L35.5481 23.7273L35.5662 23.7066L35.5837 23.6859L35.601 23.6655L35.6182 23.6445L35.6357 23.6233L35.6527 23.6023L35.6696 23.5813L35.6866 23.5598L35.7032 23.5385L35.7199 23.517L35.7363 23.4954L35.7526 23.4739L35.7687 23.4521L35.7848 23.4302L35.8006 23.4081L35.8164 23.3863L35.8322 23.3642L35.8477 23.3418L35.8629 23.3193L35.8782 23.2969L35.8934 23.2745L35.9083 23.2518L35.9233 23.2291L35.9379 23.2065L35.9523 23.1838L35.9666 23.1608L35.981 23.1378L35.9954 23.1145L36.0094 23.0913L36.0229 23.0683L36.0367 23.0447L36.0505 23.0212L36.0637 22.9979L36.0772 22.9741L36.0902 22.9508L36.1031 22.9269L36.1163 22.9028L36.1289 22.879L36.1416 22.8548L36.1539 22.831L36.166 22.8069L36.1784 22.7827L36.1901 22.7583L36.2022 22.7339L36.2137 22.7098L36.2255 22.6851L36.2367 22.6607L36.2479 22.6359L36.2591 22.611L36.27 22.5865L36.2809 22.5615L36.2915 22.5366L36.3019 22.5116L36.3122 22.4866L36.3226 22.4613L36.3323 22.4363L36.3424 22.4107L36.3521 22.3855L36.3616 22.3602L36.3711 22.3346L36.3803 22.309L36.3895 22.2835L36.3984 22.2579L36.4073 22.2321L36.4159 22.2062L36.4245 22.1804L36.4329 22.1542L36.4409 22.1284L36.449 22.1022L36.457 22.0758L36.4648 22.0496L36.4722 22.0235L36.4797 21.9971L36.4869 21.9706L36.4941 21.9442L36.5009 21.9175L36.5076 21.8911L36.5142 21.8644L36.5208 21.8374L36.5271 21.8106L36.5331 21.7836L36.5392 21.7566L36.5449 21.7296L36.5506 21.7026L36.5561 21.6753L36.5613 21.6481L36.5664 21.6208L36.5716 21.5935L36.5762 21.5659L36.5811 21.5383L36.5854 21.5107L36.5897 21.4829L36.594 21.4553L36.598 21.4274L36.6018 21.3996L36.6055 21.3717L36.609 21.3433L36.6121 21.3151L36.6153 21.287L36.6184 21.2588L36.621 21.2304L36.6236 21.2019L36.6262 21.1732L36.6285 21.1448L36.6305 21.116L36.6325 21.0873L36.6342 21.0586L36.6357 21.0296L36.6371 21.0003L36.6383 20.9713L36.6394 20.9422L36.6403 20.9129L36.6408 20.8834L36.6414 20.8541L36.6417 20.8245V20.7949V20.765L36.6414 20.7354L36.6408 20.7061L36.6403 20.6765L36.6394 20.6472L36.6383 20.6182L36.6371 20.5892L36.6357 20.5599L36.6342 20.5309L36.6325 20.5022L36.6305 20.4734L36.6285 20.4447L36.6262 20.4163L36.6236 20.3875L36.621 20.3591L36.6184 20.3307L36.6153 20.3025L36.6121 20.2744L36.609 20.2459L36.6055 20.2178L36.6018 20.1899L36.598 20.162L36.594 20.1342L36.5897 20.1066L36.5854 20.0787L36.5811 20.0512L36.5762 20.0236L36.5716 19.996L36.5664 19.9687L36.5613 19.9414L36.5561 19.9141L36.5506 19.8868L36.5449 19.8598L36.5392 19.8328L36.5331 19.8058L36.5271 19.7788L36.5208 19.7521L36.5142 19.7251L36.5076 19.6987L36.5009 19.672L36.4941 19.6453L36.4869 19.6188L36.4797 19.5924L36.4722 19.5663L36.4648 19.5398L36.457 19.5134L36.449 19.4873L36.4409 19.4611L36.4329 19.4353L36.4245 19.4094L36.4159 19.3833L36.4073 19.3574L36.3984 19.3316L36.3895 19.306L36.3803 19.2804L36.3711 19.2549L36.3616 19.2293L36.3521 19.204L36.3424 19.1785L36.3323 19.1532L36.3226 19.1282L36.3122 19.1029L36.3019 19.0779L36.2915 19.0529L36.2809 19.0279L36.27 19.0029L36.2591 18.9782L36.2479 18.9535L36.2367 18.9288L36.2255 18.9044L36.2137 18.88L36.2022 18.8556L36.1901 18.8309L36.1784 18.8067L36.166 18.7826L36.1539 18.7585L36.1416 18.7343L36.1289 18.7105L36.116 18.6864L36.1031 18.6625L36.0902 18.639L36.0772 18.6151L36.0637 18.5916L36.0505 18.5683L36.0367 18.5448L36.0232 18.5212L36.0092 18.4982L35.9954 18.4749L35.981 18.4517L35.9666 18.4287L35.9526 18.4057L35.9379 18.383L35.9233 18.3603L35.9083 18.3376L35.8934 18.3149L35.8782 18.2925L35.8629 18.2701L35.8477 18.2477L35.8322 18.2256L35.8164 18.2032L35.8006 18.1814L35.7848 18.1592L35.7687 18.1374L35.7526 18.1156L35.7363 18.094L35.7199 18.0725L35.7032 18.0509L35.6866 18.0297L35.6696 18.0084L35.6527 17.9872L35.6357 17.9659L35.6182 17.9449L35.601 17.9243L35.5837 17.9036L35.5659 17.8826L35.5481 17.8622L35.5303 17.8415L35.5125 17.8211L35.4944 17.801L35.4763 17.7809L35.4579 17.7608L35.4395 17.741L35.4208 17.7212L35.4022 17.7013L35.3835 17.6818L35.3642 17.6623L35.3453 17.6427L35.3263 17.6238L35.3071 17.6045L35.2875 17.5856L35.268 17.5666L35.2485 17.5477L35.2287 17.529L35.2091 17.5106L35.189 17.4919L35.1689 17.4735L35.1488 17.4555L35.1287 17.4374L35.1083 17.4195L35.0879 17.4017L35.0672 17.3839L35.0465 17.3661L35.0256 17.3489L35.0049 17.3316L34.9839 17.3144L34.9627 17.2972L34.9417 17.2802L34.9204 17.2636L34.8992 17.2469L34.8773 17.2299L34.8558 17.2136L34.8342 17.1975L34.8124 17.1811L34.7906 17.165L34.7685 17.1492L34.7466 17.1334L34.7242 17.1176L34.7021 17.1021L34.68 17.0869L34.6576 17.0717L34.6349 17.0564L34.6122 17.0415L34.5898 17.0269L34.5668 17.0119L34.5441 16.9976L34.5211 16.9832L34.4982 16.9688L34.4749 16.9548L34.4519 16.9407L34.4286 16.9269L34.4054 16.9131L34.3815 16.8993L34.3583 16.8861L34.3347 16.8729L34.3109 16.8597L34.2873 16.8467L34.2635 16.8338L34.2393 16.8209L34.2155 16.8085L34.1916 16.7962L34.1672 16.7838L34.1431 16.7718L34.119 16.7597L34.0945 16.7479L34.0701 16.7361L34.0454 16.7247L34.021 16.7132L33.9963 16.702L33.9716 16.6908L33.9469 16.6798L33.9219 16.6692L33.8969 16.6586L33.8719 16.648L33.8469 16.6376L33.8216 16.6276L33.7967 16.6175L33.7714 16.6075L33.7458 16.5977L33.7205 16.5882L33.695 16.5787L33.6694 16.5695L33.6438 16.5603L33.6183 16.5514L33.5924 16.5425L33.5666 16.5339L33.5407 16.5253L33.5146 16.517L33.4887 16.5089L33.4626 16.5009L33.4364 16.4931L33.41 16.4854L33.3839 16.4776L33.3577 16.4704L33.331 16.463L33.3046 16.4561L33.2781 16.4492L33.2514 16.4423L33.2244 16.4357L33.198 16.4291L33.171 16.423L33.144 16.4167L33.117 16.4107L33.09 16.4049L33.063 16.3995L33.0357 16.394L33.0087 16.3886L32.9811 16.3834L32.9538 16.3785L32.9262 16.3736L32.8987 16.369L32.8711 16.3644L32.8432 16.3601L32.8157 16.3558L32.7878 16.3521L32.7599 16.3481L32.7321 16.3446L32.7039 16.3409L32.6758 16.3377L32.6473 16.3346L32.6192 16.3317L32.591 16.3288L32.5626 16.3262L32.5338 16.3236L32.5051 16.3213L32.4764 16.3193L32.4477 16.3173L32.4189 16.3156L32.3899 16.3142L32.3609 16.3127L32.3316 16.3116L32.3026 16.3104L32.2733 16.3096L32.2437 16.309L32.2144 16.3087L32.1848 16.3084L32.1552 16.3081L32.1254 16.3084Z" fill="#F65165"/>
<path d="M19.9327 11.1846H14.4512V30.3996H19.9327V11.1846Z" fill="#335084"/>
<path d="M64.3077 11.1846H58.8262V30.3996H64.3077V11.1846Z" fill="#335084"/>
<path d="M73.4376 11.1686H67.9561V30.3994H73.4376V11.1686Z" fill="#335084"/>
<path d="M87.8932 11.1686H82.4116V30.3994H87.8932V11.1686Z" fill="#335084"/>
<path fill-rule="evenodd" clip-rule="evenodd" d="M106.177 20.7761H100.695C100.695 15.2748 105.162 11.1686 110.663 11.1686C116.164 11.1686 120.63 15.2748 120.63 20.7761V30.3994H115.149V20.7761C115.149 18.3002 113.139 16.2902 110.663 16.2902C108.187 16.2902 106.177 18.3002 106.177 20.7761Z" fill="#F65165"/>
<path d="M42.1202 0.573364H36.6387V30.4013H42.1202V0.573364Z" fill="#335084"/>
<path d="M106.177 0.573364H100.695V30.4013H106.177V0.573364Z" fill="#335084"/>
</svg>
